<svg xmlns="http://www.w3.org/2000/svg" fill="none" viewBox="0 0 135 200" height="200" width="135">
<path fill="black" d="M14.0606 95.7408L11.1396 102.609C11.1206 102.653 11.0875 102.69 11.0454 102.714L1.19116 108.322C1.09481 108.376 0.98664 108.271 1.03872 108.173L11.6097 88.3112C11.6482 88.239 11.7233 88.1938 11.8051 88.1938H16.9005C16.9823 88.1938 17.0574 88.239 17.0959 88.3112L27.6669 108.173C27.719 108.271 27.6108 108.376 27.5145 108.322L17.6602 102.714C17.6181 102.69 17.585 102.653 17.566 102.609L14.645 95.7408H14.0606Z"></path>
<path fill="black" d="M1.4819 112.017C1.36307 112.032 1.30808 111.874 1.41074 111.812L14.2401 104.093C14.3103 104.051 14.3981 104.051 14.4684 104.093L27.295 111.812C27.3976 111.874 27.3426 112.032 27.2238 112.017L14.4671 110.377C14.3922 110.367 14.3163 110.367 14.2414 110.377L1.4819 112.017Z"></path>
<path fill="black" d="M132.666 93.4471C132.36 93.4471 132.146 93.2252 132.146 92.905C132.146 92.5905 132.357 92.3714 132.658 92.3714C132.924 92.3714 133.115 92.5371 133.144 92.7927H132.95C132.927 92.641 132.812 92.5455 132.658 92.5455C132.475 92.5455 132.346 92.6916 132.346 92.905C132.346 93.1241 132.481 93.2757 132.672 93.2757C132.818 93.2757 132.927 93.1774 132.95 93.023H133.144C133.113 93.2814 132.924 93.4471 132.666 93.4471Z"></path>
<path fill="black" d="M132.644 94.0144C132.014 94.0144 131.54 93.5622 131.54 92.9106C131.54 92.2815 131.992 91.8069 132.644 91.8069C133.273 91.8069 133.747 92.2591 133.747 92.9106C133.747 93.5397 133.295 94.0144 132.644 94.0144ZM132.644 93.8318C133.158 93.8318 133.548 93.4527 133.548 92.9106C133.548 92.3882 133.177 91.9922 132.644 91.9922C132.13 91.9922 131.739 92.3686 131.739 92.9106C131.739 93.4358 132.11 93.8318 132.644 93.8318Z" clip-rule="evenodd" fill-rule="evenodd"></path>
<path fill="black" d="M74.9264 94.0146C71.2708 94.0146 69.3317 95.6393 69.3317 100.118C69.3317 104.596 71.2867 106.253 74.9423 106.253C78.582 106.253 80.5052 104.596 80.5052 100.134C80.5052 95.6234 78.582 94.0146 74.9264 94.0146ZM77.7842 100.134C77.7842 103.262 76.7409 103.913 74.9264 103.913C73.1119 103.913 72.0527 103.246 72.0527 100.134C72.0527 97.0212 73.1119 96.3541 74.9264 96.3541C76.7409 96.3541 77.7842 97.0053 77.7842 100.134Z" clip-rule="evenodd" fill-rule="evenodd"></path>
<path fill="black" d="M46.8401 106.094V94.2473H56.0082V96.6446H49.5235V99.0905H55.4043V101.393H50.4187C50.3801 101.393 50.3443 101.372 50.3242 101.339L49.6917 100.3H49.5228L49.5235 103.697H56.0082V106.094H46.8401Z"></path>
<path fill="black" d="M58.111 106.094V94.2473H63.9364C66.4538 94.2473 67.7132 95.9329 67.7789 97.4954C67.8456 99.0834 67.3779 100.302 66.1196 100.681V100.914C67.4706 101.2 67.734 101.895 67.9481 103.585L68.341 106.094H65.8615L65.5856 103.663C65.3838 102.393 65.1507 101.835 63.609 101.835H61.6053C61.5667 101.835 61.5309 101.815 61.5108 101.782L60.8915 100.764H60.7227L60.7207 106.094H58.111ZM60.7207 99.7307H63.678C65.0722 99.7307 65.5808 99.362 65.5808 98.1356C65.5856 97.1397 65.0881 96.6446 63.8051 96.6446H60.7207V99.7307Z" clip-rule="evenodd" fill-rule="evenodd"></path>
<path fill="black" d="M87.3547 94.2592H82.2051V106.094H87.3547C90.6766 106.094 92.409 103.964 92.409 100.134C92.409 96.3192 90.6766 94.2592 87.3547 94.2592ZM86.8779 103.697H84.8885L84.8881 96.6446H86.9097C88.7719 96.6446 89.7618 97.4724 89.7618 100.118C89.7618 102.853 88.7719 103.697 86.8779 103.697Z" clip-rule="evenodd" fill-rule="evenodd"></path>
<path fill="black" d="M106.388 94.2592H110.971L112.561 102.475H112.72L114.295 94.2592H118.877V106.094H116.214V96.7643H116.018L113.948 106.094H111.334L109.247 96.7643H109.052V106.094H106.388V94.2592Z"></path>
<path fill="black" d="M33.0039 106.097L37.323 94.242H41.1757L45.463 106.097H42.5571L41.7517 103.801H37.7295C37.6946 103.801 37.6639 103.778 37.6543 103.745L37.313 102.55H37.1072L35.8304 106.097H33.0039ZM37.445 101.612H40.9835L39.5094 97.41H38.9574L37.445 101.612Z" clip-rule="evenodd" fill-rule="evenodd"></path>
<path fill="black" d="M121.061 106.094V94.2473H130.229V96.6446H123.744V99.0905H129.625V101.393H124.639C124.601 101.393 124.565 101.372 124.545 101.339L123.912 100.3H123.743L123.744 103.697H130.229V106.094H121.061Z"></path>
<path fill="black" d="M99.3429 94.0146C95.6873 94.0146 93.7482 95.6393 93.7482 100.118C93.7482 104.596 95.7031 106.253 99.3588 106.253C102.998 106.253 104.922 104.596 104.922 100.134C104.922 95.6234 102.998 94.0146 99.3429 94.0146ZM102.201 100.134C102.201 103.262 101.157 103.913 99.3429 103.913C97.5283 103.913 96.4692 103.246 96.4692 100.134C96.4692 97.0212 97.5283 96.3541 99.3429 96.3541C101.157 96.3541 102.201 97.0053 102.201 100.134Z" clip-rule="evenodd" fill-rule="evenodd"></path>
</svg>
