<svg xmlns="http://www.w3.org/2000/svg" fill="none" viewBox="0 0 109 200" height="200" width="109">
<g clip-path="url(#clip0_3547_553)">
<path fill="black" d="M75.6106 107.303C81.38 107.303 84.0096 106.022 84.559 102.279H80.4617C79.9532 103.728 78.77 104.304 74.918 104.304H74.1228C69.2941 104.304 68.3954 103.331 68.3954 100.385V99.9287C68.3954 96.9704 69.2919 95.9971 74.1212 95.9971H74.9092C78.7613 95.9971 79.9445 96.5734 80.4524 98.0227H84.5497C84.0009 94.2896 81.3713 92.9983 75.6019 92.9983H73.4105C66.8051 92.9983 64.3193 94.7272 64.3193 99.6512V100.644C64.3193 105.568 66.8051 107.297 73.4105 107.297L75.6106 107.303Z"></path>
<path fill="black" d="M61.3876 100.65C61.3876 105.574 58.8185 107.303 52.0333 107.303H49.7902C43.0219 107.303 40.4531 105.574 40.4531 100.65V99.6576C40.4531 94.7335 43.0241 93.0046 49.7902 93.0046H52.0333C58.8185 93.0046 61.3876 94.7335 61.3876 99.6576V100.65ZM50.4416 104.315H51.4011V104.304C56.415 104.283 57.3312 103.331 57.3312 100.385V99.9457C57.3312 96.9874 56.415 96.0334 51.4011 96.0142H50.4416C45.3996 96.0334 44.531 96.9874 44.531 99.9457V100.403C44.531 103.342 45.4083 104.293 50.4416 104.315Z" clip-rule="evenodd" fill-rule="evenodd"></path>
<path fill="black" d="M18.9822 103.013V103.312C18.9822 106.11 17.3666 107.105 12.8219 107.109H0.0214844V93.2075H12.3985C16.8216 93.2075 18.5739 93.9823 18.5739 96.5436V96.7378C18.5739 98.8274 17.5751 99.6812 15.9248 99.8946V99.9949C17.7379 100.134 18.9409 100.908 18.9822 103.013ZM11.9707 96.1423H4.02121V98.6054H12.0706C13.9857 98.6054 14.5764 98.328 14.5764 97.4336V97.3547C14.5764 96.4198 13.9879 96.1423 11.9707 96.1423ZM14.989 102.735C14.989 101.598 14.2941 101.384 11.949 101.384L4.02121 101.389V104.163H11.949C14.3158 104.163 14.989 103.907 14.989 102.815V102.735Z" clip-rule="evenodd" fill-rule="evenodd"></path>
<path fill="black" d="M38.0713 107.105V103.886H26.4522V93.2139H22.459V107.115L38.0713 107.105Z"></path>
<path fill="black" d="M91.9324 107.104V102.733L95.1729 100.887H95.2945L103.081 107.102H109L98.7072 98.9211L108.716 93.2009H102.612L92.0348 99.2968H91.9324V93.203H87.9375V107.104H91.9324Z"></path>
</g>
<defs>
<clipPath id="clip0_3547_553">
<rect transform="translate(0 92.5)" fill="white" height="15" width="109"></rect>
</clipPath>
</defs>
</svg>
