<svg xmlns="http://www.w3.org/2000/svg" fill="none" viewBox="0 0 101 200" height="200" width="101">
<g clip-path="url(#clip0_4685_382)">
<path fill="#75746C" d="M7.43455 114.085C8.00986 113.446 8.61978 112.839 9.26155 112.268C9.13651 112.257 8.93814 112.233 8.72289 112.2C8.25862 112.622 7.66774 113.24 7.13594 113.808C6.46275 114.534 5.90932 115.167 5.90932 115.17C5.90088 115.175 5.89719 115.187 5.88822 115.194C5.44822 115.315 4.70275 115.521 4.20577 115.654C3.47033 115.857 2.81033 115.809 2.81033 116.287C2.81033 116.287 2.04903 116.695 2.2263 117.303C2.2263 117.303 3.75627 116.084 5.06097 115.879C5.06097 115.879 4.26328 116.398 4.3345 117.102C4.3345 117.102 5.41023 115.493 6.66692 116.469C6.66692 116.469 6.10716 115.708 6.34035 115.289C6.54241 115.064 6.95814 114.597 7.43455 114.085ZM5.01244 95.0875C4.9477 95.1155 4.8777 95.1291 4.80721 95.1276C4.69477 95.1268 4.58512 95.0925 4.49228 95.0291C4.39943 94.9656 4.3276 94.876 4.28596 94.7715C4.27527 94.7518 4.26763 94.7307 4.26328 94.7087L4.09815 94.7641C4.12682 94.8584 4.17385 94.9461 4.23652 95.0222C4.29919 95.0982 4.37628 95.1612 4.46334 95.2073C4.55041 95.2535 4.64575 95.2821 4.74387 95.2913C4.84199 95.3005 4.94097 95.2902 5.03512 95.2611C5.12701 95.2293 5.21115 95.1784 5.28203 95.1118C5.38848 95.0081 5.46292 94.876 5.4965 94.7312C5.53007 94.5864 5.52137 94.4351 5.47143 94.2951L5.09052 94.4254C5.11624 94.4821 5.12989 94.5436 5.13061 94.6058C5.1312 94.659 5.12059 94.7117 5.09949 94.7604L5.27306 94.8659C5.24235 94.914 5.20486 94.9573 5.16174 94.9947C5.11855 95.0351 5.06782 95.0667 5.01244 95.0875ZM20.4035 93.8562L12.8913 95.6869L27.5685 89.3411L15.4764 90.821L21.9477 86.0965L15.0111 88.803L16.0594 86.7027L11.097 90.2739L11.0553 90.199L18.0906 75L6.65215 88.5318L6.58093 81.1542L2.38352 91.0157L2.16352 88.1082L0.0959406 95.671H0.0996336C0.299618 95.5312 0.520146 95.4233 0.753302 95.3513C0.782847 95.3429 0.813974 95.3355 0.843518 95.327C0.847211 95.327 0.850377 95.3234 0.855653 95.3234C0.885197 95.3165 0.916324 95.3096 0.945868 95.3044C0.949561 95.3044 0.95431 95.3007 0.959585 95.3007C0.991327 95.2949 1.02339 95.291 1.0556 95.2891V95.2854C1.08884 95.2817 1.11997 95.2817 1.14951 95.2785H1.16851C1.20077 95.275 1.23331 95.275 1.26558 95.2785C1.26984 95.2789 1.27398 95.2801 1.27771 95.2822C1.30688 95.282 1.336 95.2843 1.36477 95.2891C1.37 95.2899 1.37535 95.2899 1.38059 95.2891C1.41171 95.2929 1.44255 95.2987 1.47292 95.3065C1.47933 95.3072 1.48568 95.3085 1.49191 95.3102C1.52304 95.3186 1.55628 95.3276 1.5911 95.3381C2.01415 95.4902 2.47696 95.4902 2.90002 95.3381C2.90002 95.3381 3.5674 95.7655 3.5674 96.1232C3.5674 96.1232 2.69162 96.1759 2.69162 95.786C1.79882 95.5519 0.853977 95.616 0.000976562 95.9686L3.30836 97.3893C3.30836 97.3735 3.1311 96.7563 3.32208 96.5452C3.38275 96.4703 3.48879 96.446 3.65604 96.502C3.67681 96.5127 3.70018 96.5174 3.72349 96.5156C3.74681 96.5137 3.76913 96.5053 3.78793 96.4914C4.04539 96.2276 2.79714 93.9242 2.79714 93.9242C2.40446 93.9169 2.01479 93.9939 1.65439 94.15C1.29399 94.3061 0.971251 94.5376 0.707931 94.829C0.643566 94.8965 0.577619 94.9678 0.514837 95.0464C0.762204 94.6267 1.07903 94.2521 1.45182 93.9385C1.79417 93.6466 2.19465 93.4308 2.62673 93.3054C2.75546 92.9978 2.59191 93.1999 2.85623 93.0363V93.0326C3.13024 91.2992 3.88266 89.6767 5.02879 88.3477C5.13431 88.2295 5.24457 88.1098 5.36064 87.9953C5.14396 88.3974 5.00591 88.8372 4.95388 89.291C5.24278 88.8757 5.56666 88.4858 5.92198 88.1256C5.91649 88.1331 5.91189 88.1413 5.90826 88.1499C5.8038 88.3688 5.0499 89.9832 5.12798 90.4533C5.13 90.4565 5.13126 90.4601 5.13167 90.4638L6.66165 89.0636L6.65479 89.0689C6.60942 89.1296 5.21925 91.0093 5.08155 91.654V91.6593L7.39656 90.0075V90.0112C7.3897 90.0249 7.10481 90.4195 6.98611 90.6363C6.94059 90.7047 6.90771 90.7806 6.88903 90.8606L6.89272 90.8727L8.13886 90.3377C8.13886 90.3377 8.08611 90.4021 7.998 90.496L7.53373 90.9666L7.41925 91.088L6.57512 91.9389L6.5593 91.9579L5.91671 92.6105L5.50467 93.0289C5.34989 93.1837 5.22236 93.3635 5.12745 93.5607C5.1212 93.6182 5.13203 93.6762 5.15859 93.7275C5.18515 93.7788 5.22625 93.8212 5.27675 93.8493C5.4486 93.9449 5.58553 94.0927 5.66769 94.2714C5.71425 94.3819 5.73794 94.5007 5.73733 94.6206C5.73763 94.7379 5.71406 94.8539 5.66808 94.9618C5.6221 95.0696 5.55465 95.167 5.46985 95.2479C5.30306 95.4083 5.0829 95.5015 4.85163 95.5094C4.62037 95.5174 4.3943 95.4397 4.21685 95.2912C4.37692 95.4776 4.60064 95.5978 4.84445 95.6283C5.08826 95.6588 5.3347 95.5975 5.53579 95.4563L6.56985 94.7024L6.61522 94.6676L7.68409 93.8857C7.95581 94.2129 8.19208 94.568 8.38893 94.9451C7.75584 95.5481 6.67167 96.5938 5.59277 97.7381C4.94807 98.4171 4.30496 99.1367 3.75733 99.8157L4.14299 98.0056L4.17412 97.8563C4.17412 97.8563 4.17412 97.8563 4.17412 97.8599C4.17052 97.8609 4.16699 97.8622 4.16357 97.8636C4.16357 97.8636 4.15829 97.8689 4.15829 97.8689C4.15829 97.8689 4.14985 97.8689 4.14774 97.8774C4.14638 97.8775 4.1451 97.8781 4.14414 97.879C4.14317 97.88 4.14258 97.8813 4.14246 97.8826C4.13772 97.8846 4.13313 97.8868 4.12874 97.8895C4.12642 97.8935 4.12265 97.8966 4.11819 97.8979C4.1132 97.9019 4.10791 97.9054 4.10237 97.9085C4.09876 97.9129 4.0947 97.917 4.09023 97.9206C4.08496 97.9259 4.08337 97.9291 4.0744 97.9312C4.06959 97.9369 4.06429 97.9422 4.05858 97.947C4.0533 97.9507 4.04644 97.9591 4.03958 97.9607C4.03569 97.9682 4.02962 97.9742 4.02217 97.9781C4.01386 97.9835 4.00624 97.9899 3.99949 97.9971C3.99325 98.0025 3.98743 98.0083 3.98208 98.0145C3.9724 98.0202 3.96411 98.0279 3.95781 98.0372C3.94726 98.0409 3.94409 98.0478 3.93354 98.053C3.92671 98.0633 3.91793 98.0721 3.90769 98.0789C3.90054 98.0863 3.89296 98.0934 3.885 98.1C3.87389 98.1085 3.86396 98.1184 3.85546 98.1295C3.84815 98.1368 3.84 98.1432 3.83119 98.1485C3.82236 98.1626 3.81045 98.1745 3.79637 98.1833C3.78913 98.1893 3.78226 98.1956 3.7758 98.2023C3.76904 98.2096 3.76142 98.216 3.75311 98.2213C3.75311 98.225 3.75311 98.225 3.75311 98.225C3.74256 98.2356 3.72884 98.2493 3.71671 98.263C3.70637 98.2706 3.6976 98.2801 3.69086 98.291C3.67788 98.3017 3.66571 98.3133 3.65445 98.3258L3.62491 98.3553C3.61647 98.3675 3.60592 98.3764 3.60064 98.3849C3.59566 98.389 3.59106 98.3936 3.58692 98.3986C3.58692 98.3986 3.58323 98.4039 3.57848 98.407L3.5558 98.4297L3.52625 98.463C3.5258 98.465 3.52476 98.4669 3.52326 98.4684C3.52177 98.4699 3.51988 98.471 3.51781 98.4714C3.51415 98.4753 3.51008 98.4789 3.50568 98.482C3.5006 98.4916 3.49338 98.4999 3.48457 98.5062C3.47306 98.5223 3.45959 98.5368 3.44448 98.5495C3.43393 98.5653 3.42179 98.5753 3.41124 98.5912C3.40069 98.607 3.38328 98.6223 3.37114 98.6365C3.35901 98.6508 3.34846 98.6645 3.33632 98.6782C3.32419 98.6919 3.30836 98.713 3.29306 98.731C3.27776 98.7489 3.27038 98.7589 3.25824 98.7742C3.24611 98.7895 3.23028 98.8091 3.21498 98.8296C3.20253 98.8428 3.1909 98.8567 3.18016 98.8713C3.16433 98.894 3.14903 98.913 3.13162 98.9357C3.12055 98.949 3.11017 98.9629 3.1005 98.9774C3.0815 99.0032 3.0604 99.0301 3.03982 99.0554C3.03297 99.066 3.02241 99.0781 3.01714 99.0866C2.98918 99.1245 2.95805 99.1646 2.9322 99.2063L2.92851 99.21C2.90054 99.2501 2.87311 99.2881 2.84673 99.3282C2.83925 99.3407 2.83115 99.3529 2.82246 99.3646C2.80347 99.3941 2.78237 99.4253 2.76179 99.4564L2.73225 99.5018C2.71325 99.5313 2.69584 99.5593 2.67474 99.5888C2.66419 99.6078 2.65575 99.6236 2.6452 99.6416C2.62937 99.6711 2.60879 99.7022 2.5898 99.7334C2.58136 99.7524 2.5687 99.7698 2.56026 99.7888C2.54126 99.8183 2.52544 99.8515 2.50486 99.8811C2.49431 99.8969 2.48217 99.9191 2.47162 99.9365C2.45263 99.9713 2.43522 100.002 2.41623 100.036C2.40779 100.055 2.39723 100.074 2.38668 100.095C2.30174 100.253 2.21786 100.411 2.1345 100.588V100.592L1.70875 100.663C1.79369 100.444 1.87757 100.245 1.96937 100.057L1.2756 101.033L1.96937 100.965C1.23129 102.767 0.879036 104.703 0.935317 106.649L1.50035 106.292C1.65753 107.134 1.99167 107.933 2.48069 108.636C2.96972 109.34 3.60248 109.931 4.33714 110.372L4.33345 110.355C5.71886 111.243 7.28427 111.812 8.91651 112.021C9.15656 112.05 9.35124 112.069 9.3945 112.073C9.42387 112.078 9.45345 112.081 9.48313 112.082C10.3881 112.162 11.2991 112.135 12.198 112.004C12.198 112.037 12.1928 112.07 12.1928 112.103C12.165 112.336 12.2214 112.571 12.3517 112.766C12.4821 112.96 12.6778 113.102 12.9034 113.165C12.3243 114.204 11.8291 115.288 11.4225 116.406C11.39 116.513 11.3349 116.611 11.2611 116.694C11.1123 116.728 10.9656 116.769 10.8216 116.82L10.8253 116.816C10.3743 116.668 9.88501 116.687 9.44673 116.869C9.44782 116.872 9.44964 116.874 9.45201 116.876C9.02157 117.068 8.67264 117.406 8.46649 117.83C8.78522 117.527 9.19917 117.344 9.63771 117.312C9.15814 117.587 8.32721 118.108 8.23172 118.86C8.23172 118.86 11.1155 116.838 12.5352 117.211C12.5352 117.211 12.3284 117.446 12.8185 118.319L13.0411 117.507C13.2986 116.719 12.3109 116.602 11.8957 116.587C11.8963 116.583 11.8963 116.58 11.8957 116.576C11.8957 116.576 11.9411 116.45 12.0229 116.241C12.4174 115.195 12.8988 114.184 13.4621 113.219C13.4722 113.198 13.4809 113.176 13.488 113.154L13.3714 112.996C13.4181 112.947 13.4611 112.894 13.5001 112.838C13.6262 112.646 13.6955 112.422 13.7001 112.192C13.6909 111.886 13.6156 111.585 13.4795 111.311L13.8488 111.141C13.8678 111.188 13.8889 111.231 13.9079 111.273C13.9132 111.288 13.9185 111.302 13.9238 111.316C13.9343 111.345 13.9464 111.376 13.957 111.406C13.9623 111.42 13.9675 111.436 13.9744 111.451C13.985 111.485 13.9934 111.514 14.0055 111.545C14.0055 111.554 14.0124 111.566 14.0161 111.579L16.1264 110.941L15.659 110.556L15.6379 110.535L15.6273 110.526L7.65033 103.259L7.65402 103.262V103.259C9.86985 104.338 12.4597 105.592 16.8486 107.624C21.1748 109.616 23.9108 110.777 25.3237 111.355C25.3358 111.362 25.3479 111.367 25.3585 111.372L25.8861 111.588C26.1884 111.706 26.4717 111.815 26.4875 111.822C26.5118 111.808 26.5402 111.801 26.564 111.789L10.4307 100.732L20.4035 93.8562ZM9.24203 97.2638L6.83627 99.0913L8.56198 95.2975V95.2938C8.85378 95.9263 9.08211 96.5862 9.24361 97.2638H9.24203ZM17.8284 110.348L17.889 110.636L20.6994 112.293L21.4101 112.707L21.0207 111.705C23.3394 112.387 25.2287 112.426 26.4838 111.835C24.2975 112.481 18.8761 110.655 17.8284 110.348Z"></path>
<path fill="black" d="M2.69065 95.795C2.69065 96.1823 3.56643 96.1322 3.56643 96.1322C3.56643 95.7761 2.90062 95.3471 2.90062 95.3471C2.47631 95.4982 2.01285 95.4982 1.58854 95.3471C1.31626 95.2592 1.02277 95.2621 0.752326 95.3556C0.486455 95.5457 0.234995 95.7552 0 95.9823C0.852257 95.6273 1.79742 95.5615 2.69065 95.795ZM8.55995 95.2981L6.83424 99.0919L9.24 97.2628C9.07976 96.5871 8.85285 95.9289 8.56259 95.2981H8.55995ZM26.4965 111.831C26.4965 111.831 21.0941 109.806 7.64988 103.269L15.6627 110.562H15.6664C16.0041 110.358 16.3938 110.257 16.7881 110.27C17.1824 110.283 17.5643 110.411 17.8875 110.637L17.8284 110.348C18.8746 110.655 24.315 112.49 26.4965 111.831ZM13.4886 111.315C13.6247 111.59 13.6999 111.89 13.7091 112.196C13.7055 112.426 13.6362 112.65 13.5092 112.842C13.4691 112.897 13.4261 112.95 13.3804 113L13.6205 113.329C13.7839 113.19 13.9133 113.016 13.9989 112.82C14.0845 112.623 14.124 112.41 14.1143 112.196C14.106 111.83 14.0181 111.47 13.8568 111.141L13.4886 111.315ZM8.66705 112.191C9.04743 112.252 9.39511 112.283 9.39511 112.283L9.41251 112.081C9.41251 112.081 9.0717 112.052 8.69976 111.991L8.66705 112.191ZM8.39218 94.9541C8.19549 94.576 7.95884 94.2202 7.68628 93.8926L5.53957 95.4648C5.33736 95.6062 5.08976 95.6673 4.84498 95.6362C4.6002 95.6051 4.37575 95.484 4.21535 95.2965C4.38412 95.4398 4.59856 95.518 4.81995 95.517C5.06005 95.5203 5.29169 95.4284 5.46428 95.2614C5.63687 95.0945 5.73638 94.866 5.7411 94.6259C5.74117 94.5071 5.71693 94.3895 5.66988 94.2804C5.58899 94.1009 5.45173 93.9527 5.27894 93.8583H5.28264C5.23213 93.8302 5.19103 93.7879 5.16447 93.7365C5.13791 93.6852 5.12708 93.6272 5.13333 93.5697C5.22761 93.3721 5.35522 93.1922 5.51055 93.0379L6.56571 91.9659L6.58153 91.9469L7.53698 90.9762L8.00124 90.5056C8.08829 90.4116 8.14052 90.3473 8.14052 90.3473L6.8928 90.8791C6.8928 90.8791 6.86853 90.8654 6.98988 90.6427C7.11122 90.4201 7.4035 90.0139 7.4035 90.0139L5.08638 91.6657C5.22038 91.0178 6.66911 89.0742 6.66911 89.0742L5.13914 90.4723C5.03678 89.9843 5.9305 88.1325 5.9305 88.1325C5.57192 88.4919 5.24682 88.8832 4.95923 89.3016C5.01058 88.8467 5.14809 88.4057 5.36441 88.0022C4.03032 89.3847 3.15662 91.1461 2.86316 93.0448C2.59357 93.2131 2.75765 93.0084 2.6305 93.3175C1.73669 93.6204 0.984445 94.2396 0.515443 95.0585C0.780224 94.7042 1.12531 94.4177 1.52234 94.2226C1.91937 94.0275 2.35702 93.9294 2.79933 93.9364C2.79933 93.9364 4.31981 96.7415 3.65928 96.5157C2.99875 96.2899 3.31161 97.4015 3.31161 97.4015L2.06758 96.865C2.45494 97.5853 2.58785 98.4153 2.4448 99.2206C2.1487 99.6752 1.90215 100.16 1.70935 100.667L2.13511 100.596C2.21846 100.417 2.30024 100.256 2.3836 100.101C2.396 100.082 2.4071 100.062 2.41683 100.042C2.43424 100.009 2.45165 99.9777 2.47223 99.945L2.50547 99.8859C2.52288 99.8563 2.5387 99.8252 2.55822 99.7957C2.57036 99.7746 2.58249 99.7577 2.59146 99.7382C2.61045 99.7086 2.62628 99.6775 2.64686 99.6495C2.65516 99.6311 2.66505 99.6135 2.6764 99.5968C2.69539 99.5672 2.71439 99.5361 2.73391 99.5066C2.74249 99.4901 2.75237 99.4744 2.76345 99.4596C2.78187 99.4284 2.80213 99.3982 2.82412 99.3694C2.8308 99.3559 2.83894 99.3431 2.84839 99.3314C2.87424 99.2913 2.90115 99.2533 2.93017 99.2148L2.93386 99.2095C2.96182 99.1679 2.98926 99.1314 3.01563 99.0929C3.02408 99.0845 3.03304 99.0703 3.04149 99.0597L3.10057 98.98C3.11021 98.9662 3.12136 98.9534 3.13381 98.942C3.14753 98.9215 3.16336 98.8988 3.18077 98.8761C3.19338 98.8631 3.20502 98.8492 3.21559 98.8344C3.23141 98.8154 3.24513 98.7964 3.26096 98.779C3.27679 98.7616 3.28523 98.7511 3.29578 98.7373L3.33746 98.6846C3.35117 98.6709 3.36014 98.6566 3.37228 98.6429C3.38529 98.6265 3.39921 98.6108 3.41396 98.596C3.42451 98.5822 3.43664 98.5701 3.44719 98.558C3.45774 98.5458 3.47515 98.5284 3.48518 98.5126C3.4952 98.4968 3.50786 98.4868 3.52 98.4762C3.53213 98.4656 3.54427 98.4503 3.55798 98.4361C3.5717 98.4219 3.57698 98.415 3.58753 98.4013C3.59808 98.3876 3.61338 98.3754 3.62551 98.3612C3.6366 98.3513 3.64651 98.3401 3.65506 98.3279C3.66697 98.3165 3.67966 98.306 3.69304 98.2963C3.70116 98.2865 3.70979 98.2772 3.7189 98.2683C3.73103 98.2562 3.74316 98.2404 3.7553 98.2303C3.76743 98.2203 3.77113 98.2145 3.77957 98.2098C3.80067 98.1892 3.81597 98.1734 3.83232 98.1544C3.84113 98.149 3.84928 98.1426 3.85659 98.1354C3.86556 98.1247 3.87545 98.1148 3.88614 98.1058C3.89326 98.0984 3.90084 98.0913 3.90882 98.0847C3.91907 98.0779 3.92786 98.0691 3.93468 98.0589C3.94523 98.0536 3.94839 98.0483 3.95894 98.0431C3.96526 98.0338 3.97355 98.026 3.98321 98.0204C3.98849 98.0151 3.99376 98.0067 4.00062 98.003C4.0086 97.9972 4.01618 97.9908 4.02331 97.984C4.03077 97.9801 4.03686 97.974 4.04072 97.9666C4.04758 97.9666 4.05285 97.9581 4.05971 97.9528C4.06625 97.949 4.0717 97.9436 4.07554 97.937C4.0819 97.9355 4.08752 97.9318 4.09137 97.9265C4.09623 97.9233 4.10037 97.9192 4.1035 97.9143C4.10941 97.9119 4.11478 97.9083 4.11933 97.9038C4.12381 97.9024 4.1276 97.8994 4.12988 97.8953C4.13409 97.8924 4.13871 97.8901 4.1436 97.8885C4.14371 97.8871 4.14431 97.8858 4.14527 97.8849C4.14624 97.8839 4.14751 97.8833 4.14887 97.8832C4.14887 97.8779 4.15573 97.8779 4.15942 97.8748C4.16312 97.8716 4.1647 97.8711 4.1647 97.8695C4.1647 97.8679 4.16997 97.8658 4.17525 97.8658C4.18053 97.8658 4.17525 97.8621 4.17525 97.8621L4.14412 98.0114L3.75846 99.8215C5.20573 98.1091 6.753 96.4838 8.39218 94.9541ZM4.09928 94.7647L4.26599 94.7093C4.27067 94.731 4.2783 94.7519 4.28868 94.7715C4.33032 94.876 4.40215 94.9657 4.49499 95.0291C4.58784 95.0925 4.69748 95.1268 4.80993 95.1277C4.88042 95.1292 4.95041 95.1155 5.01515 95.0876C5.12276 95.0439 5.21392 94.9675 5.27578 94.8691L5.1022 94.7636C5.12435 94.7139 5.13499 94.6598 5.13333 94.6054C5.13258 94.5431 5.11893 94.4817 5.09324 94.4249L5.47362 94.2946C5.51325 94.3866 5.53344 94.4859 5.53291 94.5861C5.53237 94.6863 5.51114 94.7853 5.47052 94.8769C5.42991 94.9685 5.37081 95.0507 5.29691 95.1183C5.22302 95.186 5.13593 95.2377 5.04112 95.2701C4.94632 95.3025 4.84583 95.315 4.74597 95.3067C4.64612 95.2985 4.54905 95.2697 4.46085 95.2221C4.37266 95.1745 4.29525 95.1093 4.23348 95.0304C4.17172 94.9515 4.12692 94.8607 4.10192 94.7636L4.09928 94.7647Z"></path>
<path fill="black" d="M39.2675 97.8046C38.8936 97.7238 38.5113 97.6884 38.1289 97.6991H37.0464V103.813L37.1614 103.734L38.0514 103.106L38.0831 103.084V101.354H38.4218C38.9692 101.38 39.5075 101.205 39.9338 100.86C40.1219 100.693 40.2705 100.486 40.3688 100.255C40.4671 100.023 40.5126 99.7723 40.502 99.5208C40.5086 99.2785 40.4652 99.0374 40.3744 98.8127C40.2837 98.5879 40.1475 98.3843 39.9744 98.2146C39.779 98.0181 39.5351 97.8767 39.2675 97.8046ZM38.3653 100.471H38.0804V98.5965H38.4001C39.2168 98.5965 39.6304 98.8988 39.6304 99.5034C39.631 100.148 39.2068 100.471 38.3653 100.471ZM45.0249 101.206C45.3734 101.112 45.6824 100.908 45.9065 100.626C46.1583 100.307 46.2909 99.9097 46.2816 99.5034C46.29 99.2483 46.2404 98.9946 46.1366 98.7614C46.0328 98.5282 45.8775 98.3216 45.6823 98.157C45.1734 97.8093 44.5603 97.6474 43.946 97.6986H42.8307V103.813L42.9436 103.734L43.8368 103.106L43.8685 103.084V101.334H43.917L45.582 103.717L45.6221 103.776L45.6828 103.733L46.3971 103.217L46.4578 103.174L46.4146 103.115L45.0249 101.206ZM43.8642 100.471V98.5965H44.184C45.0028 98.5965 45.4148 98.8988 45.4148 99.5034C45.4148 100.148 44.9927 100.47 44.1486 100.471H43.8642ZM29.4841 97.879C29.0203 97.744 28.5381 97.6831 28.0554 97.6986H26.7443V103.744H28.0411C28.5163 103.761 28.9913 103.705 29.4492 103.577C29.9368 103.396 30.3706 103.094 30.7099 102.699C31.0492 102.305 31.2831 101.831 31.3897 101.322C31.4963 100.813 31.4721 100.285 31.3194 99.7877C31.1667 99.2904 30.8905 98.84 30.5165 98.4783C30.2202 98.2056 29.8678 98.0011 29.4841 97.879ZM29.7742 102.232C29.5735 102.414 29.3366 102.552 29.0789 102.637C28.7639 102.728 28.4368 102.769 28.1092 102.76H27.7805V98.682H28.1092C28.7112 98.6387 29.3075 98.8234 29.7795 99.1995C29.9784 99.399 30.136 99.6357 30.2434 99.8961C30.3508 100.156 30.4058 100.435 30.4053 100.717C30.4048 100.999 30.3488 101.278 30.2405 101.538C30.1323 101.798 29.9738 102.033 29.7742 102.232ZM22.9685 98.5701C23.3668 98.5751 23.7565 98.6874 24.0964 98.8951L24.1608 98.9315L24.1956 98.8693L24.6282 98.1238L24.6646 98.061L24.6019 98.023C24.1261 97.7407 23.5839 97.5896 23.0307 97.5852C22.5679 97.5723 22.1082 97.6652 21.6867 97.8567C21.2652 98.0483 20.8928 98.3334 20.5981 98.6904C20.1027 99.2611 19.8316 99.9923 19.8352 100.748C19.8301 101.157 19.9082 101.563 20.0648 101.941C20.2213 102.319 20.453 102.661 20.7458 102.947C21.0355 103.239 21.381 103.469 21.7618 103.624C22.1425 103.779 22.5505 103.856 22.9616 103.85C23.5374 103.848 24.1026 103.696 24.6008 103.407L24.6372 103.384V103.324L24.6288 103.306L24.1946 102.558L24.1566 102.492L24.0906 102.535C23.9799 102.607 23.8631 102.669 23.7414 102.721C23.4979 102.825 23.2344 102.875 22.9695 102.867C22.6933 102.871 22.419 102.819 22.164 102.713C21.9089 102.607 21.6784 102.449 21.487 102.25C21.2896 102.051 21.1343 101.815 21.0304 101.554C20.9265 101.294 20.8762 101.015 20.8824 100.735C20.8761 100.452 20.9263 100.17 21.0302 99.9058C21.134 99.6419 21.2893 99.4013 21.487 99.198C21.6765 98.996 21.9062 98.8358 22.1612 98.7278C22.4162 98.6198 22.691 98.5663 22.9679 98.5707L22.9685 98.5701ZM91.1315 98.683L91.151 98.6619L91.9714 97.8247L92.0949 97.6981H88.5891V103.744H91.1494L91.1705 103.723L91.9735 102.886L92.0922 102.762H89.6258V100.885H90.3871L90.4082 100.862L91.2407 100.028L91.3642 99.9017H89.6274V98.6836L91.1315 98.683ZM73.3922 98.683H74.7481V103.813L74.8626 103.734L75.7526 103.106L75.7843 103.084V98.6852H77.138V97.7002H73.3922V98.683ZM51.4661 97.5888C51.0507 97.5834 50.6383 97.6616 50.2538 97.8188C49.8692 97.9761 49.5202 98.2092 49.2276 98.5042C48.9239 98.8016 48.6842 99.1579 48.5233 99.5513C48.3624 99.9448 48.2836 100.367 48.2919 100.792C48.3002 101.217 48.3954 101.636 48.5715 102.023C48.7477 102.409 49.0011 102.756 49.3162 103.041C49.9201 103.58 50.7061 103.869 51.5151 103.85C52.324 103.831 53.0956 103.505 53.6735 102.939C53.974 102.655 54.2121 102.312 54.3728 101.932C54.5335 101.551 54.6132 101.141 54.6068 100.728C54.6013 99.8967 54.2686 99.1011 53.6808 98.5133C53.093 97.9255 52.2974 97.5928 51.4661 97.5873V97.5888ZM52.9433 102.249C52.7457 102.45 52.5092 102.609 52.2482 102.715C51.9872 102.822 51.7073 102.873 51.4255 102.868C51.1433 102.866 50.8642 102.809 50.6042 102.699C50.3441 102.59 50.1082 102.43 49.9099 102.229C49.7116 102.028 49.5548 101.79 49.4484 101.529C49.342 101.268 49.2881 100.988 49.2899 100.706C49.2916 100.424 49.3489 100.145 49.4585 99.8845C49.5681 99.6244 49.7278 99.3885 49.9286 99.1902C50.1293 98.9919 50.3672 98.8351 50.6285 98.7287C50.8899 98.6223 51.1697 98.5684 51.4519 98.5701C51.731 98.5646 52.0083 98.617 52.2662 98.7241C52.5241 98.8311 52.757 98.9905 52.9502 99.1922C53.1502 99.3925 53.3075 99.6315 53.4123 99.8945C53.5171 100.158 53.5674 100.439 53.5601 100.722C53.5649 101.005 53.5129 101.286 53.4073 101.548C53.3016 101.811 53.1444 102.049 52.9449 102.25L52.9433 102.249ZM98.2812 98.4783C97.9842 98.2058 97.6313 98.0013 97.2472 97.879C96.7835 97.7437 96.3013 97.6828 95.8185 97.6986H94.5117V103.744H95.8069C96.2831 103.761 96.7591 103.705 97.2182 103.577C97.7051 103.395 98.1381 103.093 98.4768 102.698C98.8155 102.304 99.049 101.83 99.1555 101.321C99.262 100.813 99.2381 100.285 99.086 99.788C98.9339 99.291 98.6585 98.8404 98.2855 98.4783H98.2812ZM97.5389 102.232C97.3379 102.413 97.1017 102.551 96.8452 102.637C96.529 102.727 96.2007 102.769 95.8718 102.76H95.5436V98.682H95.8718C96.4747 98.639 97.0719 98.8237 97.5453 99.1995C97.7512 99.3941 97.9133 99.6303 98.0209 99.8923C98.1285 100.154 98.1791 100.436 98.1694 100.719C98.18 101.002 98.1292 101.284 98.0207 101.545C97.9121 101.806 97.7483 102.041 97.5405 102.233L97.5389 102.232ZM84.6022 101.205C84.9502 101.111 85.2589 100.907 85.4833 100.625C85.7353 100.306 85.8675 99.9092 85.8568 99.5029C85.8651 99.2477 85.8155 98.994 85.7116 98.7608C85.6077 98.5276 85.4522 98.321 85.2569 98.1565C84.7477 97.8096 84.1348 97.6478 83.5207 97.6981H82.4033V103.813L82.5183 103.733L83.4115 103.106L83.4447 103.083V101.334H83.4932L85.1551 103.717L85.1984 103.776L85.2596 103.733L85.9739 103.217L86.0314 103.174L85.9913 103.115L84.6022 101.205ZM83.4447 100.47V98.5965H83.7613C84.5818 98.5965 84.9921 98.8988 84.9921 99.5034C84.9921 100.148 84.57 100.47 83.7259 100.471L83.4447 100.47ZM70.5544 97.7207L68.3839 99.9461V97.6326L68.2673 97.716L67.3773 98.3412L67.3457 98.3639V103.813L67.4644 103.734L68.3544 103.106L68.3839 103.084V101.261L68.4895 101.156L70.5628 103.718L70.6029 103.77L70.6599 103.734L71.4233 103.218L71.4893 103.173L71.4365 103.108L69.227 100.449L71.8464 97.8278L71.9715 97.7012H70.5755L70.5544 97.7207ZM57.7986 98.3428L57.7675 98.3654V101.584C57.7913 101.931 57.7391 102.279 57.6145 102.603C57.5702 102.691 57.5003 102.763 57.4141 102.81C57.3279 102.857 57.2295 102.877 57.1318 102.867C56.9288 102.857 56.7334 102.787 56.5704 102.666L56.5045 102.622L56.466 102.688L56.0249 103.448L55.9896 103.51L56.0508 103.548C56.3769 103.745 56.7506 103.85 57.1318 103.85C57.3665 103.858 57.5999 103.812 57.8147 103.717C58.0295 103.622 58.2202 103.48 58.3726 103.301C58.5373 103.105 58.654 102.873 58.7134 102.624C58.7889 102.284 58.8215 101.935 58.8105 101.587V97.63L58.6923 97.7134L57.7986 98.3428ZM64.1723 98.683L64.1945 98.6619L65.0148 97.8247L65.1346 97.6981H61.6341V103.744H64.1908L64.215 103.723L65.0148 102.886L65.1335 102.762H62.6703V100.885H63.4263L63.4453 100.862L64.2783 100.028L64.4018 99.9017H62.6687V98.6836L64.1723 98.683Z"></path>
</g>
<defs>
<clipPath id="clip0_4685_382">
<rect transform="translate(0 75)" fill="white" height="46.4912" width="100"></rect>
</clipPath>
</defs>
</svg>
