<svg xmlns="http://www.w3.org/2000/svg" fill="none" viewBox="0 0 126 200" height="200" width="126">
<g clip-path="url(#clip0_3547_560)">
<path fill="black" d="M27.6777 105.263C26.9703 105.263 26.3198 105.144 25.7261 104.905C25.1325 104.653 24.6208 104.313 24.1913 103.885C23.7619 103.444 23.4271 102.922 23.1872 102.318C22.9472 101.714 22.8271 101.059 22.8271 100.354C22.8271 99.6618 22.9409 99.0135 23.1682 98.4093C23.4082 97.8051 23.7367 97.289 24.1535 96.861C24.5829 96.4204 25.0945 96.0742 25.6882 95.8225C26.2946 95.5707 26.964 95.4448 27.6966 95.4448C28.4167 95.4448 29.0798 95.577 29.6861 95.8413C30.2924 96.1057 30.804 96.477 31.2208 96.9554C31.6503 97.4337 31.9724 98.0065 32.1871 98.6737C32.4019 99.3283 32.484 100.058 32.4335 100.864H24.8924C24.9051 101.229 24.9808 101.569 25.1198 101.884C25.2714 102.186 25.4672 102.456 25.7072 102.696C25.9598 102.922 26.2567 103.105 26.5977 103.243C26.9513 103.369 27.3366 103.432 27.7535 103.432C28.284 103.432 28.7577 103.325 29.1746 103.111C29.604 102.897 29.9261 102.563 30.1409 102.11H32.3198C32.1808 102.551 31.9724 102.966 31.6946 103.356C31.4293 103.734 31.0945 104.068 30.6903 104.357C30.2987 104.634 29.8503 104.854 29.3451 105.018C28.8398 105.182 28.284 105.263 27.6777 105.263ZM27.6398 97.182C26.9829 97.182 26.4019 97.3708 25.8967 97.7484C25.404 98.1135 25.0882 98.6611 24.9493 99.3912H30.1977C30.0334 98.6233 29.7114 98.0631 29.2313 97.7107C28.7514 97.3582 28.2209 97.182 27.6398 97.182Z"></path>
<path fill="black" d="M34.6016 90.9131H36.6858V105.075H34.6016V90.9131Z"></path>
<path fill="black" d="M43.7021 105.263C42.9947 105.263 42.3442 105.144 41.7505 104.905C41.1568 104.653 40.6452 104.313 40.2158 103.885C39.7863 103.444 39.4516 102.922 39.2116 102.318C38.9715 101.714 38.8516 101.059 38.8516 100.354C38.8516 99.6618 38.9652 99.0135 39.1926 98.4093C39.4326 97.8051 39.761 97.289 40.1779 96.861C40.6074 96.4204 41.1189 96.0742 41.7126 95.8225C42.3189 95.5707 42.9883 95.4448 43.721 95.4448C44.441 95.4448 45.1041 95.577 45.7105 95.8413C46.3168 96.1057 46.8284 96.477 47.2452 96.9554C47.6747 97.4337 47.9968 98.0065 48.2115 98.6737C48.4262 99.3283 48.5084 100.058 48.4578 100.864H40.9168C40.9294 101.229 41.0053 101.569 41.1442 101.884C41.2957 102.186 41.4915 102.456 41.7316 102.696C41.9842 102.922 42.281 103.105 42.622 103.243C42.9757 103.369 43.361 103.432 43.7778 103.432C44.3084 103.432 44.7821 103.325 45.1989 103.111C45.6284 102.897 45.9505 102.563 46.1652 102.11H48.3442C48.2052 102.551 47.9968 102.966 47.7189 103.356C47.4536 103.734 47.1189 104.068 46.7147 104.357C46.3231 104.634 45.8747 104.854 45.3694 105.018C44.8642 105.182 44.3084 105.263 43.7021 105.263ZM43.6642 97.182C43.0073 97.182 42.4263 97.3708 41.921 97.7484C41.4283 98.1135 41.1126 98.6611 40.9737 99.3912H46.2221C46.0579 98.6233 45.7357 98.0631 45.2558 97.7107C44.7757 97.3582 44.2452 97.182 43.6642 97.182Z"></path>
<path fill="black" d="M62.6964 99.7688C62.6964 99.0262 62.5575 98.4345 62.2795 97.9939C62.0017 97.5533 61.5785 97.333 61.0101 97.333C60.3532 97.333 59.8164 97.5911 59.3995 98.1072C58.9953 98.6107 58.7806 99.3345 58.7554 100.279V105.075H56.6711V99.7688C56.6711 99.0262 56.5322 98.4345 56.2543 97.9939C55.9764 97.5533 55.5532 97.333 54.9848 97.333C54.3028 97.333 53.7532 97.6037 53.3365 98.145C52.9196 98.6737 52.7112 99.4352 52.7112 100.43V105.075H50.627V95.6337H52.7112V96.9176C52.9764 96.477 53.3365 96.1246 53.7911 95.8602C54.2585 95.5833 54.7954 95.4448 55.4017 95.4448C56.109 95.4448 56.709 95.6085 57.2017 95.9358C57.7069 96.263 58.0859 96.7225 58.3385 97.3141C58.6164 96.7099 59.0332 96.2505 59.589 95.9358C60.1448 95.6085 60.7385 95.4448 61.3701 95.4448C62.4438 95.4448 63.2774 95.8099 63.8711 96.54C64.4775 97.2575 64.7807 98.2205 64.7807 99.429V105.075H62.6964V99.7688Z"></path>
<path fill="black" d="M71.662 105.263C70.9547 105.263 70.3041 105.144 69.7104 104.905C69.1167 104.653 68.6052 104.313 68.1757 103.885C67.7462 103.444 67.4115 102.922 67.1715 102.318C66.9315 101.714 66.8115 101.059 66.8115 100.354C66.8115 99.6618 66.9252 99.0135 67.1526 98.4093C67.3925 97.8051 67.721 97.289 68.1378 96.861C68.5672 96.4204 69.0789 96.0742 69.6726 95.8225C70.2788 95.5707 70.9483 95.4448 71.6809 95.4448C72.401 95.4448 73.0641 95.577 73.6704 95.8413C74.2768 96.1057 74.7883 96.477 75.2052 96.9554C75.6347 97.4337 75.9567 98.0065 76.1715 98.6737C76.3862 99.3283 76.4683 100.058 76.4178 100.864H68.8768C68.8894 101.229 68.9652 101.569 69.1041 101.884C69.2557 102.186 69.4515 102.456 69.6915 102.696C69.9441 102.922 70.241 103.105 70.582 103.243C70.9357 103.369 71.321 103.432 71.7378 103.432C72.2683 103.432 72.742 103.325 73.1589 103.111C73.5883 102.897 73.9105 102.563 74.1252 102.11H76.3041C76.1652 102.551 75.9567 102.966 75.6789 103.356C75.4136 103.734 75.0789 104.068 74.6747 104.357C74.2831 104.634 73.8346 104.854 73.3294 105.018C72.8241 105.182 72.2683 105.263 71.662 105.263ZM71.6241 97.182C70.9673 97.182 70.3862 97.3708 69.881 97.7484C69.3883 98.1135 69.0726 98.6611 68.9336 99.3912H74.182C74.0178 98.6233 73.6957 98.0631 73.2157 97.7107C72.7357 97.3582 72.2052 97.182 71.6241 97.182Z"></path>
<path fill="black" d="M78.5869 95.6337H80.6711V96.9176C80.9616 96.4393 81.3595 96.0742 81.8648 95.8225C82.3701 95.5707 82.9321 95.4448 83.5513 95.4448C84.0943 95.4448 84.5867 95.5392 85.0293 95.7281C85.4836 95.9169 85.8691 96.1812 86.1849 96.5211C86.5007 96.861 86.7403 97.2764 86.9044 97.7673C87.0818 98.2457 87.1697 98.7869 87.1697 99.3912V105.075H85.0857V99.7311C85.0857 98.9758 84.9091 98.3904 84.5552 97.975C84.2012 97.547 83.7212 97.333 83.1153 97.333C82.4205 97.333 81.8395 97.5974 81.3722 98.1261C80.9048 98.6422 80.6711 99.41 80.6711 100.43V105.075H78.5869V95.6337Z"></path>
<path fill="black" d="M93.866 105.169C93.4109 105.169 92.9882 105.106 92.5969 104.98C92.2048 104.854 91.8575 104.665 91.5541 104.414C91.264 104.149 91.0368 103.822 90.8727 103.432C90.7077 103.029 90.6257 102.563 90.6257 102.035V97.4841H88.6553V95.6336H90.6257V93.009H92.7105V95.6336H95.4195V97.4841H92.7105V101.695C92.7105 102.286 92.8365 102.702 93.0893 102.941C93.3546 103.18 93.7583 103.3 94.3021 103.3C94.5035 103.3 94.7 103.287 94.889 103.262C95.0912 103.224 95.2678 103.174 95.4195 103.111V104.961C95.2048 105.024 94.971 105.075 94.719 105.112C94.4786 105.15 94.1943 105.169 93.866 105.169Z"></path>
<path fill="black" d="M101.179 105.263C100.535 105.263 99.9291 105.138 99.3604 104.886C98.805 104.621 98.3251 104.269 97.9205 103.828C97.516 103.375 97.1944 102.853 96.954 102.261C96.7268 101.67 96.6133 101.034 96.6133 100.354C96.6133 99.6744 96.7268 99.0387 96.954 98.4471C97.1944 97.8554 97.516 97.3393 97.9205 96.8987C98.3251 96.4456 98.805 96.0931 99.3604 95.8413C99.9291 95.577 100.535 95.4448 101.179 95.4448C101.861 95.4448 102.468 95.5959 102.999 95.898C103.542 96.1875 103.946 96.5211 104.211 96.8987V95.6337H106.295V105.075H104.211V103.81C103.946 104.187 103.542 104.527 102.999 104.829C102.468 105.119 101.861 105.263 101.179 105.263ZM101.559 103.375C101.975 103.375 102.355 103.3 102.695 103.149C103.049 102.985 103.346 102.771 103.586 102.507C103.838 102.23 104.034 101.909 104.173 101.544C104.313 101.179 104.381 100.782 104.381 100.354C104.381 99.9262 104.313 99.5297 104.173 99.1646C104.034 98.7996 103.838 98.4848 103.586 98.2205C103.346 97.9435 103.049 97.7295 102.695 97.5785C102.355 97.4149 101.975 97.333 101.559 97.333C101.142 97.333 100.756 97.4149 100.402 97.5785C100.062 97.7295 99.7649 97.9435 99.5121 98.2205C99.2725 98.4848 99.0827 98.7996 98.9434 99.1646C98.805 99.5297 98.7354 99.9262 98.7354 100.354C98.7354 100.782 98.805 101.179 98.9434 101.544C99.0827 101.909 99.2725 102.23 99.5121 102.507C99.7649 102.771 100.062 102.985 100.402 103.149C100.756 103.3 101.142 103.375 101.559 103.375Z"></path>
<path fill="black" d="M109.146 95.6335H111.231V97.314C111.319 97.0496 111.446 96.8105 111.61 96.5965C111.787 96.3699 111.982 96.181 112.197 96.03C112.425 95.8664 112.671 95.7468 112.936 95.6712C113.202 95.5831 113.467 95.5391 113.732 95.5391C114.022 95.5391 114.294 95.5642 114.547 95.6146V97.7483C114.37 97.6853 114.2 97.6413 114.036 97.6161C113.871 97.5909 113.694 97.5783 113.505 97.5783C113.202 97.5783 112.911 97.6413 112.633 97.7671C112.368 97.893 112.128 98.0755 111.914 98.3147C111.711 98.5539 111.547 98.856 111.42 99.221C111.294 99.5861 111.231 100.002 111.231 100.467V105.075H109.146V95.6335Z"></path>
<path fill="black" d="M117.112 109.021L119.14 104.565L115.066 95.6335H117.358L120.257 102.318L123.175 95.6335H125.487L119.405 109.021H117.112Z"></path>
<path fill="black" d="M7.69737 95.0262V102.562L3.86526 101.529L0 102.562L7.69737 104.615V107.357L15.3947 105.303V102.562L11.5506 101.532L15.3947 100.505V92.9696L7.69737 90.9131L0 92.9696L7.69737 95.0262Z"></path>
</g>
<defs>
<clipPath id="clip0_3547_560">
<rect transform="translate(0 90.5)" fill="white" height="19" width="126"></rect>
</clipPath>
</defs>
</svg>
