<svg xmlns="http://www.w3.org/2000/svg" fill="none" viewBox="0 0 101 200" height="200" width="101">
<path fill="black" d="M45.8737 101.538C45.8808 101.506 45.9143 101.486 45.9455 101.497L49.3576 102.658C49.3844 102.668 49.3999 102.696 49.393 102.724C48.6059 105.891 46.1152 108.039 42.0191 108.039C37.4777 108.039 33.9095 104.721 33.9095 99.8799C33.9095 95.0391 37.4777 91.7205 42.044 91.7205C45.8158 91.7205 48.2551 93.5959 49.2145 96.3898C49.2236 96.4162 49.2111 96.4454 49.1857 96.4572L45.8966 97.9808C45.8655 97.9952 45.8289 97.9778 45.82 97.9447C45.3827 96.3276 44.2357 95.0391 42.0191 95.0391C39.4739 95.0391 37.8271 96.9355 37.8271 99.8799C37.8271 102.824 39.4989 104.721 41.9941 104.721C44.3625 104.721 45.4869 103.306 45.8737 101.538ZM29.3191 92.0742C29.3191 92.0439 29.3437 92.0193 29.374 92.0193H33.057C33.0873 92.0193 33.1119 92.0439 33.1119 92.0742V107.684C33.1119 107.715 33.0873 107.739 33.057 107.739H29.374C29.3437 107.739 29.3191 107.715 29.3191 107.684V92.0742ZM17.6885 95.1184C17.6885 95.0881 17.7131 95.0635 17.7434 95.0635H21.4564C23.4276 95.0635 24.3758 95.7123 24.3758 96.9599C24.3758 98.2325 23.4027 98.8313 21.4314 98.8313H17.7434C17.7131 98.8313 17.6885 98.8068 17.6885 98.7764V95.1184ZM28.5379 107.739C28.5682 107.739 28.5928 107.715 28.5928 107.684V107.589C28.5928 107.573 28.5864 107.559 28.5751 107.548C27.9846 107 27.5154 106.194 27.0707 103.822C26.7496 101.994 25.5975 100.729 23.953 100.364C23.9452 100.363 23.9461 100.351 23.9541 100.35C26.2018 100.205 28.0937 98.6908 28.0937 96.6605C28.0937 93.8159 26.0975 92.0193 22.0802 92.0193H14.0255C13.9952 92.0193 13.9706 92.0439 13.9706 92.0742V107.684C13.9706 107.715 13.9952 107.739 14.0255 107.739H17.6336C17.664 107.739 17.6885 107.715 17.6885 107.684V101.781C17.6885 101.75 17.7131 101.726 17.7434 101.726H21.0322C22.6291 101.726 23.3777 102.749 23.5274 104.695C23.6747 106.119 23.8703 107.204 24.1854 107.714C24.1951 107.73 24.2123 107.739 24.2309 107.739H28.5379ZM13.1201 104.521C13.1504 104.521 13.1749 104.545 13.1749 104.575V107.685C13.1749 107.715 13.1504 107.739 13.1201 107.739H0.0548869C0.0245736 107.739 0 107.715 0 107.685V92.0742C0 92.0439 0.0245737 92.0193 0.054887 92.0193H13.1772C13.2076 92.0193 13.2321 92.0439 13.2321 92.0742V95.1833C13.2321 95.2136 13.2076 95.2382 13.1772 95.2382H3.77281C3.7425 95.2382 3.71793 95.2628 3.71793 95.2931V98.0778C3.71793 98.1081 3.7425 98.1327 3.77281 98.1327H10.5749C10.6052 98.1327 10.6298 98.1573 10.6298 98.1876V101.247C10.6298 101.277 10.6052 101.302 10.5749 101.302H3.77281C3.7425 101.302 3.71793 101.326 3.71793 101.357V104.466C3.71793 104.496 3.7425 104.521 3.77281 104.521H13.1201ZM86.6266 104.844C86.6044 104.818 86.6099 104.779 86.6383 104.761L89.3437 103.05C89.3667 103.036 89.3969 103.041 89.4148 103.061C90.652 104.474 92.0344 105.21 94.0882 105.21C95.9097 105.21 97.1573 104.637 97.1573 103.564C97.1573 102.566 96.284 102.341 95.2859 102.116L91.6927 101.393C89.2224 100.894 86.8506 99.6461 86.8506 96.9512C86.8506 93.9569 89.8213 91.9607 93.6889 91.9607C96.7074 91.9607 98.9408 93.1382 100.486 94.8609C100.508 94.8847 100.504 94.9216 100.479 94.9409L97.8692 96.9162C97.8441 96.9352 97.808 96.929 97.7902 96.903C96.9223 95.6351 95.8328 94.9051 93.6889 94.9051C92.2167 94.9051 90.5341 95.7246 90.5341 96.7227C90.5341 97.621 91.8175 97.9955 92.7407 98.1951L96.1592 98.9187C99.3781 99.5924 101 100.769 101 103.364C101 106.558 97.9059 108.28 94.0882 108.28C90.7686 108.28 88.5727 107.059 86.6266 104.844ZM86.0285 104.771C86.0588 104.771 86.0834 104.796 86.0834 104.826V107.935C86.0834 107.966 86.0588 107.99 86.0285 107.99H72.9633C72.933 107.99 72.9084 107.966 72.9084 107.935V92.3249C72.9084 92.2946 72.933 92.27 72.9633 92.27H85.8039C85.8342 92.27 85.8588 92.2946 85.8588 92.3249V95.434C85.8588 95.4643 85.8342 95.4889 85.8039 95.4889H76.6813C76.6509 95.4889 76.6264 95.5135 76.6264 95.5438V98.3285C76.6264 98.3588 76.6509 98.3834 76.6813 98.3834H83.4833C83.5136 98.3834 83.5382 98.408 83.5382 98.4383V101.497C83.5382 101.528 83.5136 101.552 83.4833 101.552H76.6813C76.6509 101.552 76.6264 101.577 76.6264 101.607V104.716C76.6264 104.747 76.6509 104.771 76.6813 104.771H86.0285ZM67.9936 92.27C67.9633 92.27 67.9387 92.2946 67.9387 92.3249V107.935C67.9387 107.966 67.9633 107.99 67.9936 107.99H71.6766C71.7069 107.99 71.7315 107.966 71.7315 107.935V92.3249C71.7315 92.2946 71.7069 92.27 71.6766 92.27H67.9936ZM56.4471 95.3142C56.4168 95.3142 56.3922 95.3388 56.3922 95.3691V99.0272C56.3922 99.0575 56.4168 99.0821 56.4471 99.0821H60.1351C62.1064 99.0821 63.0795 98.4832 63.0795 97.2106C63.0795 95.963 62.1313 95.3142 60.1601 95.3142H56.4471ZM67.2965 107.935C67.2965 107.966 67.2719 107.99 67.2416 107.99H62.9346C62.9161 107.99 62.8988 107.981 62.8891 107.965C62.574 107.455 62.3784 106.37 62.2311 104.946C62.0814 103 61.3328 101.977 59.7359 101.977H56.4471C56.4168 101.977 56.3922 102.001 56.3922 102.031V107.935C56.3922 107.966 56.3677 107.99 56.3373 107.99H52.7292C52.6989 107.99 52.6743 107.966 52.6743 107.935V92.3249C52.6743 92.2946 52.6989 92.27 52.7292 92.27H60.7839C64.8012 92.27 66.7974 94.0666 66.7974 96.9112C66.7974 98.9416 64.9056 100.456 62.6578 100.601C62.6498 100.602 62.6489 100.613 62.6567 100.615C64.3012 100.98 65.4533 102.245 65.7744 104.073C66.2191 106.444 66.6883 107.251 67.2788 107.799C67.2901 107.81 67.2965 107.824 67.2965 107.84V107.935Z" clip-rule="evenodd" fill-rule="evenodd"></path>
</svg>
