<svg width="1540" height="188" viewBox="0 0 1540 188" fill="none" xmlns="http://www.w3.org/2000/svg">
<path fill-rule="evenodd" clip-rule="evenodd" d="M570.118 198C625.713 198 668.013 157.815 668.013 99.1987C668.013 40.5827 625.713 0.397461 570.118 0.397461C514.826 0.397461 472.525 40.5827 472.525 99.1987C472.525 157.815 514.826 198 570.118 198ZM570.118 40.5827C601.239 40.5827 620.878 63.8478 620.878 99.1987C620.878 134.55 601.239 157.815 570.118 157.815C539.299 157.815 519.66 134.55 519.66 99.1987C519.66 63.8478 539.299 40.5827 570.118 40.5827ZM1116.39 99.1987C1116.39 40.5827 1158.09 0.397533 1213.08 0.397533C1270.49 0.397533 1301.61 36.6549 1304.93 84.3937L1261.12 86.2065C1258.4 62.035 1244.5 40.8849 1212.78 40.8849C1182.26 40.8849 1163.53 63.5457 1163.53 99.1987C1163.53 134.852 1182.26 157.513 1212.78 157.513C1244.5 157.513 1258.4 136.363 1261.12 112.191L1304.93 114.004C1301.61 161.743 1270.49 198 1213.08 198C1158.09 198 1116.39 157.815 1116.39 99.1987ZM1501.62 99.1987C1501.62 157.815 1459.32 198 1403.72 198C1348.43 198 1306.13 157.815 1306.13 99.1987C1306.13 40.5827 1348.43 0.397533 1403.72 0.397533C1459.32 0.397533 1501.62 40.5827 1501.62 99.1987ZM1454.48 99.1987C1454.48 63.8479 1434.84 40.5827 1403.72 40.5827C1372.9 40.5827 1353.26 63.8479 1353.26 99.1987C1353.26 134.55 1372.9 157.815 1403.72 157.815C1434.84 157.815 1454.48 134.55 1454.48 99.1987ZM938.808 194.375H978.086L1016.76 53.8774H1017.97V194.375H1063.9V4.02354H994.1L962.073 131.226H961.166L927.628 4.02354H856.322V194.375H898.622V53.8774H899.831L938.808 194.375ZM846.383 194.374H799.853C795.925 189.238 793.508 176.85 791.997 156.606C790.486 135.154 780.818 128.205 761.782 128.205H723.41V194.374H678.391V4.02344H770.242C819.492 4.02344 843.664 26.9864 843.664 63.5459C843.664 91.6453 825.837 109.17 802.572 112.191C822.816 116.119 834.297 127.903 836.412 150.261C839.131 178.361 840.038 187.425 846.383 194.374ZM723.41 92.8539H762.991C786.86 92.8539 798.644 85.9046 798.644 67.1716C798.644 50.2515 786.86 40.8851 762.991 40.8851H723.41V92.8539ZM382.903 194.375H337.279V4.02354H478.079V41.7916H382.903V84.0918H455.116V121.558H382.903V194.375ZM324.775 194.374V156.606H222.952V116.421H299.999V79.2574H222.952V41.7915H322.055V4.02344H177.933V194.374H324.775ZM167.992 194.375H121.462C117.534 189.238 115.117 176.85 113.606 156.606C112.096 135.154 102.427 128.205 83.3919 128.205H45.0195V194.375H0V4.02354H91.8519C141.101 4.02354 165.273 26.9865 165.273 63.546C165.273 91.6454 147.446 109.17 124.181 112.191C144.425 116.119 155.907 127.903 158.022 150.261C160.741 178.361 161.647 187.425 167.992 194.375ZM45.0195 92.854H84.6004C108.47 92.854 120.253 85.9047 120.253 67.1717C120.253 50.2516 108.47 40.8852 84.6004 40.8852H45.0195V92.854ZM1519.45 0.397533C1508.15 0.397533 1498.91 9.00489 1498.91 20.9421C1498.91 32.8793 1508.15 41.4867 1519.45 41.4867C1530.76 41.4867 1540 32.8793 1540 20.9421C1540 9.00489 1530.76 0.397533 1519.45 0.397533ZM1519.58 8.25096C1512.48 8.25096 1507.14 13.4028 1507.14 20.9421C1507.14 28.4814 1512.48 33.5704 1519.58 33.5704C1526.93 33.5704 1530.89 28.984 1531.39 22.8269L1525.49 22.5128C1525.11 25.34 1523.48 27.8531 1519.71 27.8531C1516 27.8531 1513.8 25.0887 1513.8 20.9421C1513.8 16.6698 1516 13.9683 1519.71 13.9683C1523.48 13.9683 1525.11 16.4814 1525.49 19.2458L1531.39 19.0573C1530.89 12.9002 1526.93 8.25096 1519.58 8.25096ZM1519.45 38.5338C1509.84 38.5338 1501.99 31.1202 1501.99 20.9421C1501.99 10.7641 1509.84 3.35042 1519.45 3.35042C1529.07 3.35042 1536.92 10.7641 1536.92 20.9421C1536.92 31.1202 1529.07 38.5338 1519.45 38.5338Z" fill="black"/>
</svg>
