<svg xmlns="http://www.w3.org/2000/svg" fill="none" viewBox="0 0 101 200" height="200" width="101">
<g clip-path="url(#clip0_3547_580)">
<path fill="black" d="M6.15543 89.5H18.2964C13.2019 91.6918 8.99372 95.4684 8.99372 100.812C8.99372 104.959 12.3645 108.326 15.5963 110.25H6.15543C6.15543 110.25 0 107.598 0 100.302C0 92.7355 6.15543 89.5 6.15543 89.5ZM22.0615 110.25H18.8736C16.2809 108.616 14.5312 106.19 14.5312 103.637C14.5312 100.37 16.7362 97.3604 22.0615 96.3567V110.25ZM41.2678 96.5103C40.9784 95.8295 40.615 95.3036 40.1776 94.9327C39.5738 94.4196 38.7607 94.1631 37.7385 94.1631C36.6989 94.1631 35.7775 94.4081 34.9742 94.8982C34.1664 95.3946 33.5243 96.1141 33.1278 96.9673C32.6913 97.8962 32.4721 98.9098 32.4863 99.9335C32.4863 101.019 32.6888 101.984 33.0936 102.828C33.4656 103.636 34.0672 104.319 34.8254 104.796C35.5745 105.264 36.4615 105.498 37.4865 105.497C38.5255 105.497 39.3854 105.218 40.0662 104.66C40.5458 104.267 40.9475 103.733 41.2711 103.057V104.414C41.2711 105.65 40.9689 106.623 40.3645 107.331C39.7602 108.04 38.8236 108.394 37.5547 108.394C36.802 108.402 36.0548 108.268 35.3531 107.999C34.6896 107.741 34.0873 107.35 33.5839 106.852V109.204C34.1075 109.652 34.7224 109.985 35.3872 110.179C36.135 110.398 36.9119 110.507 37.6921 110.499C38.916 110.499 39.9827 110.27 40.8922 109.81C41.7827 109.366 42.5197 108.671 43.0102 107.814C43.5153 106.946 43.7679 105.902 43.7679 104.682V94.5062H41.2678V96.5103ZM39.7654 102.916C39.2595 103.224 38.6738 103.381 38.0791 103.368C37.1463 103.368 36.4048 103.055 35.8547 102.43C35.3046 101.805 35.0292 100.972 35.0287 99.9335C35.0287 99.2093 35.1588 98.576 35.419 98.0335C35.6579 97.5148 36.0392 97.0722 36.5198 96.7556C37.0108 96.4419 37.586 96.2805 38.171 96.2923C38.7368 96.2839 39.2936 96.4328 39.7776 96.722C40.259 97.017 40.6415 97.4452 40.8776 97.9534C41.1471 98.531 41.2805 99.1614 41.2678 99.7972C41.2678 100.506 41.1377 101.128 40.8776 101.663C40.6363 102.178 40.2503 102.614 39.7654 102.919V102.916ZM53.86 94.9589C54.345 95.3399 54.7502 95.8731 55.0754 96.5582V94.5067H57.5755V105.834H55.0754V103.656C54.9157 104.004 54.7154 104.333 54.4787 104.636C54.105 105.11 53.6264 105.494 53.0795 105.758C52.487 106.043 51.8351 106.186 51.1762 106.177C50.1826 106.176 49.3033 105.923 48.5379 105.419C47.7737 104.913 47.1774 104.212 46.7493 103.315C46.3211 102.419 46.1069 101.397 46.1069 100.251C46.1091 99.0899 46.3346 98.0458 46.7833 97.1186C47.2322 96.1913 47.8631 95.4674 48.6761 94.9469C49.4803 94.4288 50.4221 94.1573 51.3827 94.1668C52.361 94.1668 53.1868 94.4309 53.86 94.9589ZM51.8177 103.983C52.4925 103.983 53.0738 103.817 53.5616 103.485C54.0628 103.14 54.4593 102.667 54.7088 102.117C54.9841 101.535 55.1218 100.867 55.1218 100.113C55.1218 99.3742 54.9917 98.7222 54.7315 98.1567C54.4928 97.6158 54.1032 97.1529 53.608 96.822C53.1053 96.4943 52.5136 96.3249 51.9112 96.3362C51.3055 96.326 50.7108 96.4952 50.2038 96.822C49.6981 97.155 49.3024 97.6269 49.0655 98.1792C48.8065 98.7575 48.6766 99.4322 48.6761 100.203C48.6755 100.975 48.8054 101.643 49.0655 102.208C49.2974 102.74 49.6796 103.195 50.1664 103.52C50.6575 103.834 51.2326 103.995 51.8177 103.983ZM63.2178 89.553H60.7177V105.836H63.2178V89.553ZM66.552 90.0734C66.8548 89.8001 67.2539 89.654 67.6643 89.6662C68.1244 89.6662 68.4992 89.8019 68.7886 90.0734C68.9321 90.2068 69.0451 90.3686 69.1203 90.5483C69.1953 90.728 69.2309 90.9214 69.2245 91.1156C69.2288 91.3137 69.1912 91.5105 69.1143 91.6935C69.0373 91.8765 68.9225 92.0417 68.7773 92.1786C68.4765 92.4543 68.081 92.6075 67.6704 92.6075C67.2597 92.6075 66.8643 92.4543 66.5634 92.1786C66.4151 92.0435 66.2976 91.8788 66.2185 91.6956C66.1395 91.5124 66.1007 91.3147 66.1049 91.1156C66.0985 90.9204 66.1353 90.7261 66.2125 90.5462C66.2897 90.3662 66.4055 90.205 66.552 90.0734ZM68.9285 94.5053H66.4284V105.836H68.9285V94.5053ZM72.1399 89.553H74.6397V105.836H72.1399V89.553ZM85.4693 94.755C84.7041 94.3627 83.8097 94.1666 82.7866 94.1666C81.5942 94.1666 80.566 94.4191 79.7021 94.9242C78.8483 95.4182 78.1616 96.1501 77.7293 97.0278C77.2781 97.9251 77.0521 98.9467 77.0521 100.093C77.0521 101.329 77.3122 102.403 77.8318 103.315C78.3404 104.217 79.1063 104.952 80.0341 105.429C80.9824 105.927 82.0832 106.176 83.3366 106.176C84.1214 106.182 84.9025 106.071 85.6538 105.848C86.3717 105.629 86.9603 105.346 87.4195 105V102.829C86.9181 103.214 86.3506 103.508 85.7446 103.699C85.1023 103.915 84.4287 104.026 83.7501 104.027C82.4487 104.027 81.4394 103.692 80.7223 103.021C80.0995 102.44 79.7348 101.652 79.6294 100.658H87.8555V99.165C87.8555 98.1244 87.6491 97.2273 87.2364 96.4738C86.8397 95.7361 86.2228 95.1362 85.4693 94.755ZM79.9869 97.9777C80.1984 97.465 80.5573 97.0246 81.0194 96.7111C81.4779 96.4022 82.0592 96.2477 82.7626 96.2477C83.2705 96.2354 83.7733 96.348 84.226 96.5756C84.638 96.7933 84.9744 97.1286 85.1895 97.5376C85.4133 97.9486 85.5281 98.4384 85.5325 99.0071H79.697C79.75 98.6538 79.8459 98.3083 79.9833 97.9777H79.9869ZM98.2381 94.9362C99.1093 95.4466 99.8149 96.1917 100.271 97.0839C100.757 98.0042 100.999 99.0378 101 100.185C101.001 101.332 100.759 102.361 100.277 103.272C99.8185 104.16 99.1137 104.901 98.2447 105.409C97.3727 105.922 96.3634 106.179 95.2168 106.179C94.0833 106.178 93.0806 105.922 92.2086 105.409C91.3403 104.902 90.6384 104.159 90.1872 103.27C89.7134 102.357 89.4766 101.328 89.4766 100.182C89.4766 99.037 89.7134 98.0042 90.1872 97.0839C90.6341 96.1933 91.3302 95.4479 92.1941 94.9362C93.0595 94.4231 94.0644 94.1666 95.2103 94.1666C96.3562 94.1666 97.3655 94.4231 98.2381 94.9362ZM96.9331 103.496C97.4294 103.164 97.816 102.696 98.0463 102.15C98.3086 101.528 98.4387 100.859 98.427 100.186C98.4408 99.499 98.3122 98.817 98.0492 98.1813C97.8232 97.6329 97.4352 97.1641 96.936 96.8354C96.423 96.5122 95.8243 96.347 95.2161 96.3608C94.5585 96.3602 93.9925 96.5184 93.5187 96.8354C93.0283 97.1698 92.6453 97.6358 92.4157 98.1781C92.144 98.8118 92.011 99.4947 92.0248 100.182C92.0125 100.858 92.1454 101.529 92.4157 102.15C92.6482 102.691 93.0297 103.157 93.5166 103.496C93.9903 103.82 94.5563 103.982 95.2139 103.982C95.8236 103.996 96.423 103.826 96.9331 103.496Z" clip-rule="evenodd" fill-rule="evenodd"></path>
</g>
<defs>
<clipPath id="clip0_3547_580">
<rect transform="translate(0 89.5)" fill="white" height="21" width="101"></rect>
</clipPath>
</defs>
</svg>
