<svg xmlns="http://www.w3.org/2000/svg" fill="none" viewBox="0 0 86 200" height="200" width="86">
<g clip-path="url(#clip0_3547_508)">
<path fill="black" d="M1.28744 100.471C0.287305 100.701 -0.335068 101.647 -0.0918272 102.661C0.137824 103.675 1.11079 104.271 2.09734 104.041C3.09747 103.811 3.70625 102.865 3.47661 101.851C3.24695 100.835 2.27399 100.241 1.28744 100.471Z"></path>
<path fill="black" d="M2.15122 96.645C2.94888 97.2811 4.06995 97.1724 4.71951 96.3609C5.36769 95.5493 5.21958 94.4279 4.4355 93.7917C3.65143 93.1555 2.51539 93.2642 1.86721 94.0758C1.21902 94.8873 1.36714 96.0088 2.15122 96.645Z"></path>
<path fill="black" d="M6.99175 106.258C6.05956 105.812 4.99148 106.19 4.54576 107.111C4.10005 108.03 4.46423 109.098 5.39778 109.557C6.32998 110.003 7.39806 109.625 7.84377 108.705C8.27587 107.773 7.9253 106.704 6.99175 106.258Z"></path>
<path fill="black" d="M12.6134 106.258C11.6812 106.704 11.3157 107.786 11.7613 108.705C12.2071 109.624 13.2615 110.017 14.2074 109.557C15.1395 109.111 15.5051 108.029 15.0593 107.11C14.6137 106.192 13.5469 105.799 12.6134 106.258Z"></path>
<path fill="black" d="M18.3186 100.471C17.3184 100.241 16.3591 100.837 16.1295 101.851C15.8998 102.865 16.5086 103.825 17.5087 104.041C18.5088 104.27 19.4682 103.675 19.6979 102.661C19.9275 101.647 19.3188 100.701 18.3186 100.471Z"></path>
<path fill="black" d="M17.7102 96.6463C18.5079 96.0102 18.6424 94.8887 17.9943 94.0772C17.3461 93.2656 16.2237 93.1582 15.426 93.7931C14.6284 94.4292 14.4938 95.5507 15.142 96.3622C15.7915 97.1738 16.9126 97.2812 17.7102 96.6463Z"></path>
<path fill="black" d="M9.80147 90.25C8.747 90.25 7.96289 91.0615 7.96289 92.0892C7.96289 93.1169 8.747 93.9284 9.80147 93.9284C10.8424 93.9284 11.64 93.1169 11.64 92.0892C11.6387 91.0602 10.8424 90.25 9.80147 90.25Z"></path>
<path fill="black" d="M33.8771 96.1378C31.9706 96.1378 30.5274 96.8338 29.8398 98.015V92.3574H27.417V107.127H29.8398V101.718C29.8398 100.681 30.1442 99.8407 30.7531 99.1841C31.3618 98.5275 32.1295 98.1999 33.0958 98.1999C35.0417 98.1999 35.8896 99.4206 35.8896 101.718V107.127H38.3125V101.718C38.3125 99.9059 37.9687 98.5153 37.2662 97.5692C36.565 96.6231 35.4398 96.1378 33.8771 96.1378Z"></path>
<path fill="black" d="M48.9191 101.707C48.9191 102.758 48.6542 103.61 48.1241 104.254C47.5942 104.897 46.8401 105.212 45.8739 105.212C44.0597 105.212 43.3055 104.004 43.3055 101.707V96.2979H40.8691V101.72C40.8691 103.493 41.1477 104.806 41.7958 105.79C42.4441 106.788 43.5433 107.287 45.0653 107.287C46.9053 107.3 48.1894 106.67 48.9178 105.423L49.0237 107.129H51.3406V96.2992H48.9178V101.707H48.9191Z"></path>
<path fill="black" d="M68.3014 96.125C66.183 96.125 64.6868 96.9515 63.9856 98.4617C63.4027 96.8998 62.1851 96.125 60.3452 96.125C58.3721 96.125 57.1545 96.7027 56.4927 98.0023L56.3868 96.2963H54.0957V107.126H56.5185V101.717C56.5185 100.654 56.7836 99.8007 57.3122 99.1577C57.8286 98.5147 58.5705 98.1994 59.5095 98.1994C61.2828 98.1994 62.0247 99.42 62.0247 101.717V107.126H64.4613V101.717C64.4613 100.654 64.7126 99.8007 65.2426 99.1577C65.759 98.5147 66.4996 98.1994 67.4399 98.1994C69.2147 98.1994 69.9552 99.42 69.9552 101.717V107.126H72.3781V101.717C72.3781 99.9326 72.1131 98.6317 71.5044 97.6352C70.882 96.6511 69.7976 96.1386 68.3014 96.125Z"></path>
<path fill="black" d="M80.3727 96.1377C78.7842 96.1377 77.3275 96.6896 76.2553 97.6479C75.1832 98.6063 74.5078 100.064 74.5078 101.718C74.5078 103.372 75.1832 104.829 76.2553 105.774C77.3275 106.732 78.7978 107.284 80.3727 107.284C81.4982 107.284 82.531 107.008 83.4713 106.47C84.4116 105.932 85.1264 105.196 85.6034 104.265L83.524 103.281C82.9407 104.581 81.7902 105.355 80.3605 105.355C79.5397 105.355 78.8114 105.093 78.189 104.568C77.5667 104.044 77.1698 103.36 77.0108 102.52H86.1332C86.2387 100.617 85.6562 98.9624 84.6234 97.8722C83.5889 96.7943 82.0669 96.1377 80.3727 96.1377ZM77.0095 100.904C77.1685 100.05 77.5516 99.3676 78.1618 98.8428C78.7706 98.3303 79.499 98.068 80.3727 98.068C81.2466 98.068 81.9882 98.3303 82.5975 98.8428C83.206 99.3553 83.5905 100.05 83.7496 100.904H77.0095Z"></path>
</g>
<defs>
<clipPath id="clip0_3547_508">
<rect transform="translate(0 90.25)" fill="white" height="19.5" width="86"></rect>
</clipPath>
</defs>
</svg>
