<svg xmlns="http://www.w3.org/2000/svg" fill="none" viewBox="0 0 90 200" height="200" width="90">
<path fill="black" d="M34.1465 104.088V91.8014H31.0134L17.2245 110.722H21.214L30.9877 97.0155V110.722H33.2953L43.069 97.0155V110.722H46.2227V91.8014H43.0896L34.1465 104.088ZM53.7771 95.7558C49.3774 95.7558 46.0597 98.9978 46.0597 103.298C46.0597 107.253 49.5723 110.716 53.5772 110.716C55.6898 110.716 57.6539 109.916 59.105 108.46C60.469 107.087 61.269 105.224 61.2946 103.35C61.3151 101.326 60.5716 99.4314 59.1871 98.0273C57.7718 96.5818 55.7975 95.7558 53.7771 95.7558ZM53.6079 107.867C51.1773 107.867 49.121 105.74 49.121 103.226C49.121 100.722 51.1978 98.6106 53.6592 98.6106C56.1873 98.6106 58.2436 100.67 58.2436 103.2C58.2384 105.817 56.2026 107.867 53.6079 107.867ZM64.1776 97.5627C65.1315 96.5818 66.4035 96.0863 67.9726 96.0863C71.5824 96.0863 73.9159 98.4971 73.9159 102.219V110.706H70.8592V102.963C70.8592 100.216 69.8591 98.9411 67.7055 98.9411C65.6391 98.9411 64.352 100.474 64.352 102.937V110.706H61.2958V96.4631H64.1776V97.5627ZM18.9321 105.57H15.8657L15.7939 105.699C15.0708 107.041 13.6607 107.877 12.1172 107.877C10.1943 107.877 8.59434 106.612 7.95846 104.625H19.1577L19.1886 104.413C19.2654 103.923 19.2654 103.515 19.2654 103.086C19.2654 98.9823 16.0503 95.7662 11.9428 95.7662C7.9482 95.7662 4.82021 99.1114 4.82021 103.386C4.82021 104.94 5.3535 106.483 6.3278 107.779H3.15878V90.1282L0.00512976 90.1333L0.000641608 108.138C0.000287283 109.559 1.15244 110.711 2.57381 110.711H11.9172C12.7223 110.711 13.5222 110.603 14.2862 110.345C16.3323 109.648 17.9937 108.073 18.8039 105.905L18.9321 105.57ZM12.0146 98.621C14.0914 98.621 15.8708 100.149 16.1733 102.147H7.9072C8.23539 99.9632 10.2506 98.621 12.0146 98.621ZM86.3724 94.744V89.2786L89.2031 89.2786V103.67H89.1878C88.9667 107.17 86.085 110.701 81.4857 110.701C77.4805 110.701 73.9677 107.237 73.9677 103.283C73.9677 98.9823 77.286 95.7403 81.6852 95.7403C83.3931 95.7403 85.0341 96.3134 86.3724 97.3665V94.744ZM77.0293 103.21C77.0293 105.724 79.0852 107.851 81.5164 107.851C84.1107 107.851 86.1464 105.802 86.152 103.185C86.152 100.655 84.0954 98.5952 81.5673 98.5952C79.1062 98.5952 77.0293 100.707 77.0293 103.21Z" clip-rule="evenodd" fill-rule="evenodd"></path>
</svg>
