<svg xmlns="http://www.w3.org/2000/svg" fill="none" viewBox="0 0 82 200" height="200" width="82">
<path fill="black" d="M17.4906 98.6419H24.7173V101.359H17.49L23.7492 104.929L22.3744 107.282L16.1145 103.711L19.7285 109.896L17.3468 111.254L13.7335 105.07V112.211H10.9839V105.069L7.36984 111.254L4.98815 109.896L8.60217 103.712L2.34297 107.282L0.96817 104.929L7.22738 101.358H0V98.6412H7.22807L0.96817 95.0705L2.34297 92.7181L8.60287 96.2881L4.98884 90.1039L7.36984 88.7456L10.9846 94.9305V87.7891H13.7341V94.9298L17.3475 88.7456L19.7292 90.1046L16.1159 96.2888L22.3758 92.7181L23.7505 95.0712L17.4906 98.6419ZM8.60563 99.9859C8.60563 102.034 10.2861 103.695 12.3594 103.695C14.4326 103.695 16.113 102.034 16.113 99.9859C16.113 97.9375 14.4326 96.2772 12.3594 96.2772C10.2861 96.2772 8.60563 97.9375 8.60563 99.9859ZM31.4097 108.932V91.0669H34.7296V108.932H31.4097ZM63.2519 96.7916H66.4223V98.2727C67.096 97.0884 68.6694 96.4463 70.017 96.4463C71.6902 96.4463 73.0378 97.1622 73.6617 98.4696C74.6346 96.9885 75.9339 96.4463 77.5564 96.4463C79.8277 96.4463 81.9995 97.8036 81.9995 101.06V108.932H78.7793V101.727C78.7793 100.419 78.1297 99.4324 76.6069 99.4324C75.1837 99.4324 74.3348 100.518 74.3348 101.826V108.933H71.0406V101.727C71.0406 100.419 70.3667 99.4324 68.8682 99.4324C67.4201 99.4324 66.571 100.494 66.571 101.826V108.933H63.2519V96.7916ZM35.7849 102.862C35.7849 106.543 38.4932 109.284 42.2333 109.284C45.9718 109.284 48.6817 106.517 48.6817 102.862C48.6817 99.266 46.0003 96.4341 42.2333 96.4341C38.4845 96.4341 35.7849 99.2399 35.7849 102.862ZM38.7352 102.863C38.7352 100.956 40.3043 99.4057 42.2333 99.4057C44.1623 99.4057 45.7306 100.956 45.7306 102.863C45.7306 104.77 44.1623 106.32 42.2333 106.32C40.3043 106.32 38.7352 104.77 38.7352 102.863ZM55.7729 109.284C52.0329 109.284 49.3245 106.543 49.3245 102.862C49.3245 99.2399 52.0241 96.4341 55.7729 96.4341C59.54 96.4341 62.2213 99.266 62.2213 102.862C62.2213 106.517 59.51 109.284 55.7729 109.284ZM55.7729 99.3644C53.8219 99.3644 52.2345 100.934 52.2345 102.862C52.2345 104.789 53.8219 106.359 55.7729 106.359C57.7238 106.359 59.3113 104.789 59.3113 102.862C59.3105 100.934 57.7232 99.3644 55.7729 99.3644Z" clip-rule="evenodd" fill-rule="evenodd"></path>
</svg>
