<svg width="221" height="28" viewBox="0 0 221 28" fill="none" xmlns="http://www.w3.org/2000/svg">
<path d="M11.968 17.048L15.36 23.544C16.416 25.496 16.864 26.296 19.328 26.296V27H18.496C15.072 27 14.624 26.52 13.28 23.832L8.672 14.808H8.096C7.296 14.808 6.592 14.744 5.92 14.648V23.928C5.92 25.88 6.208 26.328 9.248 26.328V27H0.64V26.328C3.68 26.328 3.968 25.88 3.968 23.928V4.472C3.968 2.52 3.68 2.072 0.64 2.072V1.4H9.088C14.112 1.4 16.544 3.832 16.544 7.8C16.544 11.864 13.952 14.04 10.24 14.648C10.816 15 11.264 15.608 11.968 17.048ZM5.92 3.704V13.528C6.624 13.688 7.392 13.752 8.224 13.752C11.936 13.752 14.464 12.024 14.464 8.024C14.464 4.44 12.416 2.488 8.8 2.488C8.032 2.488 7.264 2.584 6.528 2.808C6.112 2.968 5.92 3.288 5.92 3.704ZM34.3585 1.4L34.4225 2.04L34.9985 7.48L34.1985 7.544C33.7185 3 33.1745 2.52 30.8385 2.52H25.3985C24.5025 2.52 24.0225 3 24.0225 3.864V13.112H28.8865C30.8065 13.112 31.2545 12.824 31.2545 9.464H31.9265V17.784H31.2545C31.2545 14.392 30.8065 14.104 28.8865 14.104H24.0225V24.056C24.0225 25.56 24.2785 25.88 25.5265 25.88H30.8385C33.2385 25.88 33.9425 25.208 35.3185 20.312L36.1505 20.536L34.4865 26.392L34.3265 27H18.7425V26.328C21.7825 26.328 22.0705 25.88 22.0705 23.928V4.472C22.0705 2.52 21.7825 2.072 18.7425 2.072V1.4H34.3585ZM52.6933 1.4L52.7573 2.04L53.2373 7.48L52.4373 7.544C52.0213 3 51.4773 2.52 49.1413 2.52H43.1573C42.2613 2.52 41.7813 3 41.7813 3.864V13.816H46.7733C48.7253 13.816 49.1733 13.528 49.1733 10.136H49.8453V18.52H49.1733C49.1733 15.128 48.7253 14.84 46.7733 14.84H41.7813V23.928C41.7813 25.88 42.0693 26.328 45.2053 26.328V27H36.5013V26.328C39.5413 26.328 39.8293 25.88 39.8293 23.928V4.472C39.8293 2.52 39.5413 2.072 36.5013 2.072V1.4H52.6933ZM62.648 27.512C57.112 27.512 53.336 21.56 53.336 14.2C53.336 6.84 56.92 0.887999 62.616 0.887999C68.12 0.887999 71.864 6.872 71.864 14.2C71.864 21.592 68.344 27.512 62.648 27.512ZM63.224 26.392C67.384 26.392 69.848 21.528 69.848 15.992C69.848 9.336 67.032 2.008 62.008 2.008C57.88 2.008 55.384 6.872 55.384 12.376C55.384 19.096 58.136 26.392 63.224 26.392ZM83.253 17.048L86.645 23.544C87.701 25.496 88.149 26.296 90.613 26.296V27H89.781C86.357 27 85.909 26.52 84.565 23.832L79.957 14.808H79.381C78.581 14.808 77.877 14.744 77.205 14.648V23.928C77.205 25.88 77.493 26.328 80.533 26.328V27H71.925V26.328C74.965 26.328 75.253 25.88 75.253 23.928V4.472C75.253 2.52 74.965 2.072 71.925 2.072V1.4H80.373C85.397 1.4 87.829 3.832 87.829 7.8C87.829 11.864 85.237 14.04 81.525 14.648C82.101 15 82.549 15.608 83.253 17.048ZM77.205 3.704V13.528C77.909 13.688 78.677 13.752 79.509 13.752C83.221 13.752 85.749 12.024 85.749 8.024C85.749 4.44 83.701 2.488 80.085 2.488C79.317 2.488 78.549 2.584 77.813 2.808C77.397 2.968 77.205 3.288 77.205 3.704ZM96.0115 1.4L103.531 24.152H103.595L111.243 1.4H117.227V2.072C114.155 2.072 113.867 2.52 113.867 4.472V23.928C113.867 25.88 114.155 26.328 117.227 26.328V27H108.587V26.328C111.627 26.328 111.915 25.88 111.915 23.928V3.256H111.819L103.563 27.64H102.635L94.5715 3.576H94.4755V23.928C94.4755 25.88 94.7635 26.328 97.8035 26.328V27H90.0275V26.328C93.0675 26.328 93.3555 25.88 93.3555 23.928V4.472C93.3555 2.52 93.0675 2.072 90.0275 2.072V1.4H96.0115ZM145.061 1.4V2.072C141.989 2.072 141.733 2.52 141.733 4.472V27.448H140.677L127.461 5.848V23.928C127.461 25.88 127.749 26.328 130.853 26.328V27H123.045V26.328C126.085 26.328 126.373 25.88 126.373 23.928V4.088L126.341 4.024C125.285 2.328 124.549 2.072 123.045 2.072V1.4H127.077L140.581 23.608H140.613V4.472C140.613 2.52 140.357 2.072 137.285 2.072V1.4H145.061ZM154.317 27.512C148.781 27.512 145.005 21.56 145.005 14.2C145.005 6.84 148.589 0.887999 154.285 0.887999C159.789 0.887999 163.533 6.872 163.533 14.2C163.533 21.592 160.013 27.512 154.317 27.512ZM154.893 26.392C159.053 26.392 161.517 21.528 161.517 15.992C161.517 9.336 158.701 2.008 153.677 2.008C149.549 2.008 147.053 6.872 147.053 12.376C147.053 19.096 149.805 26.392 154.893 26.392ZM167.324 4.312L173.436 23.832H173.564L179.676 4.312C180.252 2.456 180.316 2.072 177.244 2.072V1.4H183.804V2.072C181.98 2.072 181.404 2.424 180.828 4.312L173.532 27.512H172.572L165.18 4.312C164.572 2.424 164.028 2.072 162.204 2.072V1.4H169.756V2.072C166.684 2.072 166.748 2.456 167.324 4.312ZM189.872 0.919998L197.232 24.088C197.84 25.976 198.416 26.328 200.432 26.328V27H192.624V26.328C195.728 26.328 195.664 25.944 195.088 24.088L193.328 18.424H184.432L182.64 24.088C182.064 25.944 182 26.328 185.104 26.328V27H178.384V26.328C180.368 26.328 180.912 25.976 181.52 24.088L188.848 0.919998H189.872ZM188.816 4.408L184.752 17.4H193.008L188.944 4.408H188.816Z" fill="#F9F8EE"/>
<path d="M213.64 1C217.384 1 220.248 3.976 220.248 7.8C220.248 11.528 217.384 14.568 213.64 14.568C209.848 14.568 207 11.528 207 7.8C207 3.976 209.848 1 213.64 1ZM213.64 1.544C210.12 1.544 207.544 4.344 207.544 7.8C207.544 11.272 210.12 14.024 213.64 14.024C217.064 14.024 219.704 11.272 219.704 7.8C219.704 4.344 217.064 1.544 213.64 1.544ZM209.56 7.816C209.56 5.4 211.288 3.656 213.56 3.656C215.272 3.656 215.944 4.552 216.248 4.552C216.376 4.552 216.408 4.456 216.408 3.976H216.776L217.016 6.936H216.648C216.424 5.192 215.24 4.312 213.736 4.312C212.104 4.312 210.856 5.672 210.856 7.816C210.856 9.96 212.104 11.304 213.896 11.304C215.464 11.304 216.68 10.312 217.176 8.52H217.56C217.032 10.584 215.768 11.976 213.576 11.976C211.208 11.976 209.56 10.232 209.56 7.816Z" fill="#F9F8EE"/>
</svg>
