<svg xmlns="http://www.w3.org/2000/svg" fill="none" viewBox="0 0 71 200" height="200" width="71">
<path fill="black" d="M0 100.13C0 98.9609 -1.59431e-07 98.3778 0.0989676 97.8909C0.291239 96.9523 0.754973 96.0908 1.43259 95.4134C2.11021 94.7361 2.97186 94.2726 3.91056 94.0807C4.3947 93.9817 4.98049 93.9817 6.14804 93.9817C6.21817 93.9784 6.28845 93.9816 6.35801 93.9911C6.53856 94.0272 6.67899 94.1676 6.7151 94.3482C6.72446 94.3936 6.72446 94.4485 6.72446 94.5581V104.646C6.72446 105.815 6.72446 106.398 6.62549 106.885C6.43322 107.824 5.96948 108.685 5.29187 109.362C4.61425 110.04 3.7526 110.503 2.81389 110.695C2.32975 110.794 1.74397 110.794 0.57642 110.794C0.466753 110.794 0.41192 110.794 0.366448 110.785C0.278518 110.767 0.197818 110.723 0.134345 110.66C0.0708725 110.596 0.0274167 110.516 0.00936177 110.428C-4.11032e-08 110.382 0 110.327 0 110.218V100.13ZM8.55937 89.9735C8.55937 89.8639 8.55937 89.809 8.56873 89.7635C8.58679 89.6756 8.63024 89.5949 8.69372 89.5314C8.75719 89.468 8.83789 89.4245 8.92582 89.4065C8.97129 89.3971 9.02613 89.3971 9.13579 89.3971C10.3047 89.3971 10.8878 89.3971 11.3746 89.4961C12.3132 89.6883 13.1747 90.1521 13.8521 90.8297C14.5295 91.5073 14.9929 92.369 15.1849 93.3077C15.2838 93.7931 15.2838 94.3776 15.2838 95.5465V96.6993C15.2838 97.8682 15.2838 98.4513 15.1849 98.9381C14.9926 99.8768 14.5289 100.738 13.8512 101.416C13.1736 102.093 12.312 102.556 11.3733 102.748C10.8891 102.847 10.3033 102.847 9.13579 102.847C9.02613 102.847 8.97129 102.847 8.92582 102.838C8.83789 102.82 8.75719 102.776 8.69372 102.713C8.63024 102.65 8.58679 102.569 8.56873 102.481C8.55937 102.435 8.55937 102.381 8.55937 102.271V89.9735ZM23.6426 110.876H27.0998V104.726C27.7417 105.942 29.1487 106.896 31.0799 106.896C34.1786 106.896 36.5151 104.582 36.5151 100.459V100.269C36.5151 96.1443 34.1318 93.8801 31.0799 93.8801C29.245 93.8801 27.7899 94.9286 27.0998 96.1216V94.1663H23.6426V110.876ZM30.0554 104.202C28.1724 104.202 26.9794 102.985 26.9794 100.484V100.293C26.9794 97.7893 28.2192 96.5268 30.0314 96.5268C31.7713 96.5268 33.0111 97.7652 33.0111 100.293V100.483C33.0111 102.914 31.9626 104.202 30.0554 104.202ZM38.4383 106.632H41.8714V94.1676H38.4383V106.632ZM44.5703 110.876H48.0274V104.726C48.6707 105.942 50.0763 106.896 52.0076 106.896C55.1063 106.896 57.4428 104.582 57.4428 100.459V100.269C57.4428 96.1443 55.0595 93.8801 52.0076 93.8801C50.1726 93.8801 48.7175 94.9286 48.0274 96.1216V94.1663H44.5703V110.876ZM50.9831 104.202C49.1 104.202 47.9071 102.985 47.9071 100.484V100.293C47.9071 97.7893 49.1468 96.5268 50.959 96.5268C52.699 96.5268 53.9388 97.7652 53.9388 100.293V100.483C53.9388 102.914 52.8902 104.202 50.9831 104.202ZM65.0165 106.896C68.4242 106.896 70.5694 105.394 70.9746 102.7H67.71C67.496 103.749 66.7083 104.439 65.1114 104.439C63.2284 104.439 62.1076 103.249 62.0127 101.174H71V100.221C71 95.7631 68.138 93.8814 64.9202 93.8814C61.2971 93.8814 58.5087 96.4305 58.5087 100.364V100.555C58.5087 104.535 61.2503 106.896 65.0165 106.896ZM62.0608 99.0531C62.3229 97.2878 63.3715 96.2633 64.9202 96.2633C66.5652 96.2633 67.5187 97.1701 67.6378 99.0531H62.0608ZM41.8714 92.1936H38.4383V89.1243H41.8714V92.1936Z"></path>
</svg>
