<svg xmlns="http://www.w3.org/2000/svg" fill="none" viewBox="0 0 115 200" height="200" width="115">
<g clip-path="url(#clip0_3547_486)">
<path fill="black" d="M4.79642 109.326H0V90.5073H20.2135V95.3712H4.79642V109.326Z"></path>
<path fill="black" d="M45.052 90.5073H23.1826V95.3423H45.052V90.5073Z"></path>
<path fill="black" d="M11.8194 109.326H7.08008V97.5137H20.2132V102.32H11.8194V109.326Z"></path>
<path fill="black" d="M45.052 97.5137H23.1826V102.349H45.052V97.5137Z"></path>
<path fill="black" d="M45.052 104.52H23.1826V109.355H45.052V104.52Z"></path>
<path fill="black" d="M51.4473 90.507H55.1017C55.5254 90.4777 55.9507 90.5343 56.3527 90.6735C56.7546 90.8127 57.1252 91.0317 57.4428 91.3177C57.6731 91.5646 57.8524 91.8557 57.9701 92.1739C58.0877 92.4922 58.1414 92.831 58.128 93.1706C58.1563 93.7268 58.0041 94.277 57.6948 94.7371C57.3854 95.1973 56.9359 95.5419 56.415 95.7184L58.3564 98.6136H56.3579L54.6449 96.0079H53.2174V98.6136H51.4473V90.507ZM54.9875 94.5024C55.844 94.5024 56.3579 94.0392 56.3579 93.3443C56.3579 92.5916 55.844 92.1862 54.9875 92.1862H53.2174V94.5024H54.9875Z"></path>
<path fill="black" d="M59.8408 90.507H63.4952C63.919 90.4777 64.3443 90.5343 64.7462 90.6735C65.1482 90.8127 65.5188 91.0317 65.8363 91.3177C66.0667 91.5646 66.2459 91.8557 66.3636 92.1739C66.4813 92.4922 66.535 92.831 66.5215 93.1706C66.5498 93.7268 66.3977 94.277 66.0883 94.7371C65.7789 95.1973 65.3294 95.5419 64.8085 95.7184L66.75 98.6136H64.6943L62.9813 96.0079H61.6109V98.6136H59.8408V90.507ZM63.381 94.5024C64.2375 94.5024 64.7514 94.0392 64.7514 93.3443C64.7514 92.5916 64.2375 92.1862 63.381 92.1862H61.6109V94.5024H63.381Z"></path>
<path fill="black" d="M68.2344 90.5068H74.287V92.1281H69.9474V93.7495H73.7731V95.3708H69.9474V97.1079H74.3441V98.7292H68.2344V90.5068Z"></path>
<path fill="black" d="M50.7617 101.161H52.7031L54.8158 106.894L56.9286 101.161H58.8129L55.5581 109.383H54.0164L50.7617 101.161Z"></path>
<path fill="black" d="M60.0117 101.161H66.0643V102.782H61.7247V104.404H65.5504V106.025H61.7247V107.762H66.1214V109.383H60.0117V101.161Z"></path>
<path fill="black" d="M67.8916 101.161H69.5475L73.3161 106.199V101.161H75.0862V109.326H73.6016L69.7188 104.114V109.326H67.9487L67.8916 101.161Z"></path>
<path fill="black" d="M78.7405 102.782H76.2852V101.161H82.9659V102.84H80.5106V109.326H78.7405V102.782Z"></path>
<path fill="black" d="M84.165 105.793V101.161H85.9351V105.793C85.9351 107.125 86.5633 107.82 87.6482 107.82C88.7331 107.82 89.3612 107.183 89.3612 105.851V101.161H91.1313V105.793C91.1313 108.283 89.7609 109.499 87.5911 109.499C85.4212 109.499 84.165 108.225 84.165 105.793Z"></path>
<path fill="black" d="M93.1299 101.161H96.7843C97.2081 101.132 97.6333 101.189 98.0353 101.328C98.4373 101.467 98.8078 101.686 99.1254 101.972C99.3557 102.219 99.535 102.51 99.6527 102.828C99.7703 103.146 99.824 103.485 99.8106 103.825V103.825C99.8389 104.381 99.6867 104.931 99.3774 105.391C99.068 105.852 98.6185 106.196 98.0976 106.373L100.039 109.268H97.9834L96.2704 106.662H94.9V109.268H93.1299V101.161ZM96.6701 105.157C97.5266 105.157 98.0405 104.693 98.0405 103.999C98.0405 103.246 97.5266 102.841 96.6701 102.841H94.9V105.215L96.6701 105.157Z"></path>
<path fill="black" d="M101.523 101.161H107.576V102.782H103.236V104.404H107.062V106.025H103.236V107.762H107.633V109.383H101.523V101.161Z"></path>
<path fill="black" d="M108.719 108.11L109.747 106.836C110.404 107.445 111.255 107.795 112.145 107.82C112.887 107.82 113.287 107.531 113.287 107.068C113.287 106.604 113.001 106.373 111.688 106.025C110.375 105.678 109.004 105.157 109.004 103.535C109.004 102.03 110.203 101.046 111.802 101.046C112.881 101.036 113.93 101.404 114.771 102.088L113.858 103.42C113.252 102.937 112.514 102.654 111.745 102.609C111.06 102.609 110.717 102.899 110.717 103.304C110.717 103.825 111.06 103.999 112.43 104.404C113.801 104.809 115 105.446 115 106.836C115 108.457 113.801 109.384 112.031 109.384C110.813 109.371 109.639 108.919 108.719 108.11V108.11Z"></path>
</g>
<defs>
<clipPath id="clip0_3547_486">
<rect transform="translate(0 90.5)" fill="white" height="19" width="115"></rect>
</clipPath>
</defs>
</svg>
