<svg xmlns="http://www.w3.org/2000/svg" fill="none" viewBox="0 0 133 27" height="27" width="133">
<path fill="#192227" d="M53.6109 22.3817C54.2089 22.3817 54.7279 21.969 54.8624 21.3864L57.2585 11.0108C58.6134 5.05767 54.3175 2.97231e-06 48.535 1.76808e-08L48.3327 0C43.6401 -4.10125e-07 40.032 2.88865 39.0902 6.96674L35.5304 22.3817H40.4421C41.0396 22.3817 41.5582 21.9698 41.6933 21.3879L44.7222 8.34387C45.1393 6.58045 46.7531 5.45747 48.1958 5.45747L48.2063 5.45747C50.2714 5.45747 52.1518 7.4548 51.5297 10.1133L48.7004 22.3817H53.6109Z"></path>
<path fill="#192227" d="M19.2219 0.549571L16.5961 11.9204C15.2411 17.8736 19.537 22.9312 25.3195 22.9312H25.5218C30.2144 22.9312 33.8225 20.0426 34.7643 15.9645L38.1425 1.33606C38.2354 0.93372 37.9297 0.549571 37.5167 0.549571H32.392L29.1323 14.5874C28.7152 16.3508 27.1015 17.4738 25.6587 17.4738H25.6482C23.5831 17.4738 21.7027 15.4764 22.3248 12.8179L24.9728 1.33587C25.0655 0.93358 24.7599 0.549571 24.3469 0.549571H19.2219Z"></path>
<path fill="#192227" d="M6.10524 21.8844C6.03792 22.1757 5.77848 22.3819 5.4795 22.3819H0L3.08432 9.19062C4.24987 4.11575 7.88454 0.548631 13.5292 0.548631H17.2891L16.0766 5.82874C16.0096 6.1204 15.75 6.32713 15.4506 6.32713L13.5292 6.32713C11.2864 6.32713 9.44511 7.51969 8.8579 9.97796L6.10524 21.8844Z"></path>
<path fill="#192227" d="M101.049 22.3766L106.119 22.3767C106.717 22.3767 107.236 21.964 107.37 21.3814L111.269 4.49849C111.737 2.48616 110.246 0.557469 108.18 0.556532L93.4912 0.550527C92.9995 0.550326 92.5509 0.830745 92.3357 1.27273L89.829 6.42234H100.465L82.7013 22.3922H90.1558C90.6287 22.3922 91.0851 22.2183 91.438 21.9037L103.526 11.1287L101.049 22.3766Z"></path>
<path fill="#192227" d="M76.8655 17.3342L84.4632 0.548176L89.7414 0.538305C90.2161 0.537417 90.5277 1.03388 90.3203 1.46078L81.2171 20.2055C80.5725 21.5327 79.2264 22.3753 77.7506 22.3753H71.0322L73.1289 10.335L67.6571 20.3672C66.9819 21.6051 65.6842 22.3753 64.2739 22.3753H56.8999L61.9336 0.558539H67.0136C67.4339 0.558539 67.7409 0.955324 67.6353 1.36194L63.4857 17.3401L72.3688 2.27714C73.161 0.916972 74.6441 0.251796 75.8837 0.283736C77.2281 0.318377 78.9909 1.29514 78.8091 3.65245L76.8655 17.3342Z"></path>
<path fill="#192227" d="M117.1 26.6136C117.55 26.6127 117.967 26.3766 118.198 25.991L132.907 1.52633C133.165 1.0984 132.856 0.553514 132.357 0.553514H127.236L119.273 13.8637L118.103 1.12913C118.073 0.799218 117.796 0.546525 117.465 0.545781L112.454 0.534523L114.957 20.9368L111.575 26.6241L117.1 26.6136Z"></path>
<path fill="#192227" d="M125.565 19.33C125.77 19.1187 126.058 18.9978 126.394 18.9978C126.691 18.9978 126.95 19.0875 127.143 19.2531C127.337 19.419 127.459 19.6565 127.49 19.9417L127.499 20.0306H126.874L126.865 19.9601C126.836 19.7242 126.651 19.5715 126.394 19.5715C126.245 19.5715 126.119 19.6316 126.03 19.7352C125.94 19.8396 125.883 19.9921 125.883 20.1799C125.883 20.3734 125.941 20.5301 126.035 20.6371C126.127 20.7433 126.259 20.8055 126.417 20.8055C126.543 20.8055 126.647 20.7665 126.723 20.7005C126.798 20.6346 126.85 20.5374 126.865 20.4113L126.874 20.3406H127.5L127.49 20.4304C127.421 21.0002 126.984 21.3734 126.411 21.3734C126.07 21.3734 125.777 21.2528 125.57 21.04C125.363 20.8274 125.246 20.5281 125.246 20.1799C125.246 19.8373 125.361 19.5411 125.565 19.33Z"></path>
<path fill="#192227" d="M124.006 20.1913C124.006 18.8455 124.976 17.8271 126.365 17.8271C127.711 17.8271 128.73 18.7973 128.73 20.1913C128.73 21.5314 127.76 22.5556 126.365 22.5556C125.024 22.5556 124.006 21.5793 124.006 20.1913ZM126.365 18.4352C125.388 18.4352 124.649 19.1505 124.649 20.1913C124.649 21.1942 125.356 21.9475 126.365 21.9475C127.342 21.9475 128.082 21.2321 128.082 20.1913C128.082 19.1828 127.38 18.4352 126.365 18.4352Z" clip-rule="evenodd" fill-rule="evenodd"></path>
</svg>
