<svg xmlns="http://www.w3.org/2000/svg" fill="none" viewBox="0 0 95 200" height="200" width="95">
<path fill="black" d="M37.9975 106.362C38.4213 106.362 38.7892 106.072 38.8845 105.664L40.5827 98.3858C41.5431 94.21 38.4983 90.6624 34.3999 90.6624L34.2565 90.6624C30.9306 90.6624 28.3732 92.6886 27.7057 95.5491L25.1827 106.362H28.6639C29.0874 106.362 29.455 106.073 29.5507 105.665L31.6975 96.5151C31.9931 95.2782 33.1369 94.4905 34.1594 94.4905L34.1669 94.4905C35.6306 94.4905 36.9634 95.8915 36.5224 97.7563L34.5171 106.362H37.9975Z"></path>
<path fill="black" d="M13.6238 91.0478L11.7627 99.0238C10.8024 103.2 13.8471 106.747 17.9456 106.747H18.0889C21.4149 106.747 23.9722 104.721 24.6397 101.861L27.034 91.5995C27.0999 91.3173 26.8832 91.0478 26.5905 91.0478H22.9583L20.648 100.895C20.3523 102.131 19.2085 102.919 18.186 102.919L18.1786 102.919C16.7148 102.919 15.3821 101.518 15.823 99.6534L17.6998 91.5994C17.7655 91.3172 17.5489 91.0478 17.2562 91.0478H13.6238Z"></path>
<path fill="black" d="M4.32718 106.013C4.27946 106.217 4.09558 106.362 3.88368 106.362H0L2.18605 97.109C3.01215 93.5493 5.58828 91.0472 9.58901 91.0472H12.2539L11.3945 94.7509C11.347 94.9555 11.163 95.1005 10.9509 95.1005L9.58901 95.1005C7.99941 95.1005 6.69435 95.937 6.27816 97.6613L4.32718 106.013Z"></path>
<path fill="black" d="M71.6197 106.358L75.213 106.358C75.6369 106.358 76.0047 106.069 76.1001 105.66L78.8633 93.8178C79.1949 92.4062 78.1386 91.0534 76.674 91.0527L66.2632 91.0485C65.9147 91.0484 65.5967 91.2451 65.4443 91.5551L63.6676 95.1673H71.206L58.6157 106.369H63.8992C64.2344 106.369 64.5578 106.247 64.808 106.027L73.3753 98.4685L71.6197 106.358Z"></path>
<path fill="black" d="M54.4795 102.821L59.8645 91.0469L63.6055 91.0399C63.9419 91.0393 64.1628 91.3876 64.0158 91.687L57.5637 104.835C57.1069 105.766 56.1528 106.357 55.1068 106.357H50.3451L51.8311 97.9117L47.9529 104.949C47.4744 105.817 46.5546 106.357 45.555 106.357H40.3286L43.8963 91.0541H47.4969C47.7947 91.0541 48.0123 91.3325 47.9375 91.6177L44.9964 102.825L51.2924 92.2596C51.8539 91.3056 52.9051 90.839 53.7836 90.8614C54.7365 90.8857 55.9859 91.5708 55.857 93.2243L54.4795 102.821Z"></path>
<path fill="black" d="M82.9963 109.33C83.3152 109.33 83.6105 109.164 83.7748 108.894L94.1999 91.733C94.3822 91.4328 94.1637 91.0506 93.8097 91.0506H90.1801L84.5362 100.387L83.7072 91.4544C83.6857 91.223 83.4898 91.0457 83.255 91.0452L79.7034 91.0373L81.4774 105.348L79.08 109.338L82.9963 109.33Z"></path>
<path fill="black" d="M88.9963 104.221C89.1411 104.073 89.3455 103.988 89.5834 103.988C89.7943 103.988 89.9779 104.051 90.1147 104.167C90.2518 104.284 90.3383 104.45 90.3601 104.65L90.3668 104.713H89.9236L89.9175 104.663C89.897 104.498 89.7659 104.391 89.5834 104.391C89.4778 104.391 89.3888 104.433 89.3254 104.505C89.2615 104.579 89.2212 104.686 89.2212 104.817C89.2212 104.953 89.2625 105.063 89.3287 105.138C89.3945 105.213 89.4875 105.256 89.5996 105.256C89.6894 105.256 89.763 105.229 89.8165 105.183C89.8698 105.136 89.9067 105.068 89.9175 104.98L89.9235 104.93H90.3676L90.36 104.993C90.3117 105.393 90.0017 105.655 89.5956 105.655C89.3539 105.655 89.1465 105.57 88.9995 105.421C88.8526 105.272 88.7697 105.062 88.7697 104.817C88.7697 104.577 88.8516 104.369 88.9963 104.221Z"></path>
<path fill="black" d="M87.8909 104.825C87.8909 103.881 88.5787 103.167 89.563 103.167C90.5173 103.167 91.2392 103.848 91.2392 104.825C91.2392 105.765 90.5514 106.484 89.563 106.484C88.6127 106.484 87.8909 105.799 87.8909 104.825ZM89.563 103.594C88.8706 103.594 88.3465 104.095 88.3465 104.825C88.3465 105.529 88.8477 106.057 89.563 106.057C90.2554 106.057 90.7796 105.555 90.7796 104.825C90.7796 104.118 90.2824 103.594 89.563 103.594Z" clip-rule="evenodd" fill-rule="evenodd"></path>
</svg>
