<svg xmlns="http://www.w3.org/2000/svg" fill="none" viewBox="0 0 149 200" height="200" width="149">
<g clip-path="url(#clip0_3547_537)">
<path fill="black" d="M14.6516 108.341L0 97.7317V100.39L14.6516 111L29.3034 100.39V97.7317L14.6516 108.341ZM14.9249 89L3.7995 96.7561L5.83584 98.1707H5.8855C8.8655 98.0488 10.1569 96.1951 11.026 94.4146C11.6469 93.1463 12.6899 91.6585 14.2046 91.6585C14.8006 91.6585 15.4464 91.9024 16.1169 92.3659L24.287 98.0488L26.1246 96.7561L14.9249 89ZM35.164 105.61V103.805C36.1821 104.293 37.6225 104.781 39.1621 104.781C40.9254 104.781 42.2664 104.073 42.2664 102.805C42.2664 101.537 41.4965 100.829 39.1125 100.024C36.3809 99.0975 35.1144 97.9756 35.1144 95.8781C35.1144 93.561 37.1259 92.1951 39.8575 92.1951C41.273 92.1951 42.5891 92.561 43.3839 92.9024V94.6341C42.5891 94.2439 41.2234 93.8293 39.9569 93.8293C38.1936 93.8293 36.9769 94.5854 36.9769 95.8049C36.9769 96.9268 37.6721 97.7317 40.1059 98.561C42.8375 99.5122 44.1536 100.585 44.1536 102.659C44.1536 105 42.2911 106.39 39.3111 106.39C37.6474 106.415 36.1325 106.024 35.164 105.61ZM54.683 101.463C53.7145 99.3902 52.9695 97.7805 52.1996 95.8781C51.405 97.8049 50.66 99.4146 49.6915 101.463H54.683ZM52.1749 92.2195H52.2245L58.855 105.976H56.8186L55.4031 102.976H48.9961L47.6055 105.976H45.5691L52.1749 92.2195ZM73.0596 106.415L64.07 97.1463L63.5981 96.6585V106.171H61.6611V92.1951H61.686L70.6756 101.463L71.1475 101.951V92.439H73.0845L73.0596 106.415ZM79.7399 94.2195V104.878H82.0245C85.4266 104.878 87.7114 102.732 87.7114 99.561C87.7114 96.3659 85.4019 94.2439 81.95 94.2439C81.95 94.2195 79.7399 94.2195 79.7399 94.2195ZM77.8276 106.415V92.6585H81.9749C86.5939 92.6585 89.698 95.4146 89.698 99.5366C89.698 103.659 86.6435 106.415 82.0741 106.415H77.8276ZM94.8134 104.927H97.8679C99.4826 104.927 100.55 103.927 100.55 102.463C100.55 101 99.6065 100.049 98.2161 100.049H94.7891C94.8134 100.049 94.8134 104.927 94.8134 104.927ZM98.5635 98.6342C99.4324 98.4146 100.028 97.6341 100.028 96.5366C100.028 95.1219 99.0599 94.1707 97.4711 94.1707H94.8385V98.6342H98.5635ZM102.487 102.537C102.487 104.878 100.624 106.415 97.8185 106.415H93.0009V92.6585H97.3221C100.103 92.6585 101.941 94.0732 101.941 96.4146C101.941 97.6098 101.271 98.6829 100.177 99.1952C101.569 99.6829 102.487 101.024 102.487 102.537ZM112.693 104.707C115.798 104.707 118.108 102.415 118.108 99.2927C118.108 96.1707 115.822 93.8781 112.693 93.8781C109.564 93.8781 107.28 96.1707 107.28 99.2927C107.28 102.415 109.589 104.707 112.693 104.707ZM112.693 92.2195C116.791 92.2195 120.045 95.2927 120.045 99.3171C120.045 103.341 116.865 106.415 112.693 106.415C108.521 106.415 105.343 103.341 105.343 99.3171C105.343 95.3415 108.521 92.2195 112.693 92.2195ZM134.149 92.6585L129.208 99.439L134.298 106.415H132.063L128.115 100.878L124.166 106.415H121.957L127.048 99.439L122.105 92.6585H124.315L128.115 98.0244L131.939 92.6585H134.149ZM138.321 96.7805L134.745 89H135.839L136.906 91.3902C137.452 92.6098 137.874 93.5122 138.297 94.6098C138.744 93.5122 139.166 92.6098 139.687 91.3902L140.756 89H141.848L138.321 96.7805ZM144.406 89.8781V92.878H146.02C147.088 92.878 147.733 92.3171 147.733 91.3659C147.733 90.4146 147.063 89.8537 145.92 89.8537C145.92 89.878 144.406 89.8781 144.406 89.8781ZM145.945 89C147.733 89 148.826 89.8781 148.826 91.3902C148.826 92.561 148.031 93.3171 147.163 93.5854L149 96.8049H147.783L146.095 93.7561H144.406V96.8049H143.313V89.0244C143.313 89 145.945 89 145.945 89Z"></path>
</g>
<defs>
<clipPath id="clip0_3547_537">
<rect transform="translate(0 89)" fill="white" height="22" width="149"></rect>
</clipPath>
</defs>
</svg>
