<svg xmlns="http://www.w3.org/2000/svg" fill="none" viewBox="0 0 24 200" height="200" width="24">
<path fill="black" d="M16.6747 86.5V86.5227C16.676 86.9337 16.7964 92.8758 23.0321 93.2464C23.0321 98.7744 23.0349 93.2464 23.0349 97.8376C22.5664 97.8654 18.9304 97.6026 16.6677 95.5845L16.6607 104.522C16.7166 108.57 14.4637 112.538 10.2459 113.338C9.06413 113.562 8.0001 113.587 6.21392 113.197C-4.07591 110.119 -0.656655 94.8574 9.67529 96.4907C9.67529 101.418 9.67811 96.4893 9.67811 101.418C5.40992 100.79 3.98209 104.341 5.11625 106.883C6.14849 109.197 10.3983 109.699 11.8807 106.434C12.0485 105.795 12.1324 105.066 12.1324 104.248V86.5H16.6747Z" clip-rule="evenodd" fill-rule="evenodd"></path>
</svg>
