<svg xmlns="http://www.w3.org/2000/svg" fill="none" viewBox="0 0 125 200" height="200" width="125">
<path fill="black" d="M22.7448 110.379L33.4034 89.6208H23.5233L19.7366 96.8927L19.5362 96.893V89.621H12.7817L9.13189 96.9386L8.93144 96.9394V89.621H0V98.519H7.94688C5.00474 101.601 0 101.895 0 101.895V110.379C7.82327 109.668 13.3139 106.535 16.9939 101.776H17.194L12.7334 110.379H22.7448ZM94.4023 108.088H91.5258V91.6392H94.4023V108.088ZM75.6681 107.92C76.2932 108.179 76.9289 108.308 77.5752 108.308C78.6428 108.308 79.5982 108.049 80.4411 107.531C81.284 107.014 81.9373 106.3 82.4009 105.39C82.8645 104.473 83.0963 103.434 83.0963 102.272C83.0963 101.111 82.8575 100.072 82.3798 99.1548C81.9021 98.2381 81.2383 97.5278 80.3883 97.0239C79.5384 96.513 78.5726 96.2611 77.4908 96.2681C76.8025 96.2681 76.1422 96.4011 75.5099 96.667C74.8778 96.9329 74.351 97.3108 73.9295 97.8007C73.897 97.838 73.8654 97.8756 73.8347 97.9137V91.6494H70.9477V108.088H73.8136L73.8078 106.552C73.8819 106.643 73.9612 106.731 74.0454 106.818C74.5019 107.287 75.0429 107.654 75.6681 107.92ZM78.6183 105.264C78.1476 105.551 77.6103 105.694 77.0061 105.694C76.409 105.694 75.8612 105.547 75.3625 105.254C74.8637 104.953 74.4669 104.543 74.1718 104.025C73.8838 103.508 73.7398 102.92 73.7398 102.262C73.7328 101.604 73.8733 101.016 74.1613 100.498C74.4563 99.9736 74.8531 99.5677 75.3519 99.2808C75.8506 98.9868 76.4021 98.8434 77.0061 98.8504C77.6103 98.8434 78.1476 98.9833 78.6183 99.2703C79.0959 99.5502 79.4611 99.9526 79.7141 100.477C79.9739 100.995 80.1039 101.59 80.1039 102.262C80.1039 102.934 79.9739 103.529 79.7141 104.046C79.4611 104.564 79.0959 104.97 78.6183 105.264ZM40.858 92.6362H37.5706L42.1329 108.088H44.9989L48.1658 97.8453L51.6158 108.088H54.4502L58.8966 92.6362H55.8831L53.0593 103.121L49.6666 92.6362H46.9271L43.7987 103.336L40.858 92.6362ZM63.751 108.361C62.6059 108.368 61.5733 108.116 60.6532 107.605C59.74 107.087 59.0201 106.37 58.4931 105.453C57.9734 104.536 57.7135 103.49 57.7135 102.315C57.7135 101.174 57.9804 100.142 58.5143 99.218C59.0481 98.2942 59.7716 97.5734 60.6848 97.0556C61.598 96.5377 62.6164 96.2788 63.7403 96.2788C65.0048 96.2788 66.111 96.5587 67.0593 97.1186C68.0147 97.6784 68.7276 98.4727 69.1983 99.5014C69.6759 100.523 69.8481 101.695 69.7146 103.018H60.6893C60.7145 103.545 60.8465 104.024 61.0852 104.456C61.3521 104.932 61.7244 105.303 62.202 105.569C62.6797 105.835 63.2135 105.968 63.8036 105.968C64.2531 105.961 64.6711 105.884 65.0574 105.737C65.4438 105.583 65.7704 105.376 66.0373 105.117C66.3113 104.858 66.5045 104.565 66.6169 104.236H69.6303C69.4477 105.04 69.0824 105.758 68.5346 106.387C67.9866 107.01 67.2983 107.497 66.4693 107.847C65.6405 108.196 64.7343 108.368 63.751 108.361ZM61.0957 100.131C60.9274 100.424 60.8107 100.739 60.7458 101.076H66.7285C66.6851 100.65 66.553 100.261 66.3324 99.9108C66.0794 99.4979 65.7353 99.1795 65.2998 98.9555C64.8643 98.7246 64.3726 98.6091 63.8247 98.6091C63.2416 98.6091 62.7113 98.7421 62.2336 99.008C61.756 99.274 61.3767 99.6484 61.0957 100.131ZM85.8566 94.022C85.4281 94.7498 85.2139 95.5825 85.2139 96.5203H83.3595V98.9451H85.2139V108.088H88.0904V98.9451H90.3241V96.5203H88.0921C88.1054 96.0785 88.1962 95.6901 88.3643 95.3551C88.5469 94.9912 88.8068 94.7148 89.144 94.5258C89.4882 94.3299 89.9026 94.2284 90.3873 94.2214V91.6707C89.3477 91.6846 88.438 91.8981 87.6584 92.311C86.8857 92.7168 86.285 93.2872 85.8566 94.022ZM101.714 108.34C100.541 108.34 99.4909 108.084 98.5636 107.574C97.6435 107.056 96.92 106.342 96.3932 105.432C95.8733 104.516 95.6134 103.476 95.6134 102.315C95.6134 101.146 95.8733 100.103 96.3932 99.1865C96.92 98.2627 97.6435 97.5455 98.5636 97.0346C99.4909 96.5237 100.541 96.2683 101.714 96.2683C102.894 96.2683 103.948 96.5237 104.875 97.0346C105.809 97.5455 106.536 98.2593 107.056 99.176C107.576 100.093 107.839 101.139 107.846 102.315C107.839 103.476 107.576 104.516 107.056 105.432C106.543 106.342 105.82 107.056 104.886 107.574C103.951 108.084 102.894 108.34 101.714 108.34ZM101.714 105.705C102.332 105.705 102.88 105.565 103.358 105.285C103.835 104.998 104.204 104.599 104.464 104.089C104.724 103.571 104.854 102.979 104.854 102.315C104.854 101.643 104.724 101.048 104.464 100.53C104.204 100.012 103.835 99.6134 103.358 99.3334C102.88 99.0465 102.332 98.9031 101.714 98.9031C101.103 98.9031 100.559 99.0465 100.081 99.3334C99.6103 99.6134 99.245 100.012 98.9851 100.53C98.7252 101.048 98.5988 101.643 98.6058 102.315C98.6058 102.979 98.7358 103.571 98.9957 104.089C99.2626 104.599 99.6278 104.998 100.091 105.285C100.562 105.565 101.103 105.705 101.714 105.705ZM107.752 96.5203H110.955L112.979 103.879L115.148 96.5203H117.95L120.13 103.72L122.103 96.5203H125L121.523 108.088H118.762L116.301 100.7L114.021 108.088H111.218L107.752 96.5203Z" clip-rule="evenodd" fill-rule="evenodd"></path>
</svg>
